version 1
nodes
0 "root" -1
1 "Hips" 0
2 "LeftUpLeg" 1
3 "LeftLeg" 2
4 "LeftFoot" 3
5 "LeftToeBase" 4
6 "RightUpLeg" 1
7 "RightLeg" 6
8 "RightFoot" 7
9 "RightToeBase" 8
10 "Spine" 1
11 "Spine1" 10
12 "Chain01" 11
13 "Chain02" 12
14 "LeftShoulder" 11
15 "LeftArm" 14
16 "LeftForeArm" 15
17 "LeftHand" 16
18 "LeftFinger" 17
19 "Neck" 11
20 "Head" 19
21 "hair" 20
22 "RightShoulder" 11
23 "RightArm" 22
24 "RightForeArm" 23
25 "RightHand" 24
26 "RightFinger" 25
end
skeleton
time 0
0 0 0 0 0 0 0
1 0.1995237 6.450972 0.2425206 -0.05515012 0.01241157 -0.03328968
2 0.688586 -0.964526 -0.052186 -0.1667907 0.1199093 0.03850648
3 0 -2.32697 -0.119475 0.4717531 -0.004171926 -0.002126431
4 0 -1.63865 0 -0.2500361 -0.01243338 0.005830803
5 0.001767 -1.08533 0.799261 0 0.000190155 0
6 -0.688586 -0.964528 -0.052186 -0.08306318 -0.1055949 -0.05641916
7 0 -2.32697 -0.119475 0.2808859 -0.05301769 -0.01529058
8 0 -1.63865 0 -0.1280452 -0.002646758 0.0916357
9 -0.001767 -1.08533 0.795 0 0.000190155 0
10 0 0.45881 0.00262047 0.01406987 -0.006933126 0.002880215
11 0 1.2013 0.0190781 0.1216676 -0.1307983 0.02971216
12 0 1.4317 0.657269 -0.06227103 0.05033905 0
13 0 -1.89432 0.800141 -0.3047384 0.1500963 0.1066717
14 0.894124 1.47064 -0.39701 -0.006568504 -0.309622 -0.3253528
15 0.561685 -0.0639611 0 0.2465015 0.07246881 -0.9691256
16 1.77145 0 0 0 -0.2675634 0
17 2.08 0 0 0.001759073 -0.008965954 -0.1939774
18 0.90245 0 0 0 0 -1.202398
19 0 1.83283 -0.327088 0.1543963 0.02622708 -0.1262156
20 0 0.717162 0.152 -0.06580204 0.05005587 0.05385505
21 0 2.63629 -0.88721 0 0 0
22 -0.894123 1.47063 -0.39701 -0.006563227 0.3096345 0.3253961
23 -0.561687 -0.063961 0 0.1838244 -0.1227531 0.9496067
24 -1.77145 0 0 -0.0003025377 0.1878456 0
25 -2.08 0 0 0.04828422 -0.05129853 0.1077479
26 -0.98902 0 0 0 0 1.043644
time 1
0 0 0 0 0 0 0
1 0.1951093 6.450972 0.2425206 -0.05515012 0.01454623 -0.03221428
2 0.688586 -0.964526 -0.052186 -0.166486 0.1199093 0.03823528
3 0 -2.32697 -0.119475 0.4699349 -0.006171541 -0.003119987
4 0 -1.63865 0 -0.2484687 -0.01243338 0.005535041
5 0.001767 -1.08533 0.799261 0 0.000190155 0
6 -0.688586 -0.964528 -0.052186 -0.08424792 -0.1055949 -0.05669159
7 0 -2.32697 -0.119475 0.2850119 -0.05494633 -0.01609435
8 0 -1.63865 0 -0.1309219 -0.002646758 0.09130869
9 -0.001767 -1.08533 0.795 0 0.000190155 0
10 0 0.45881 0.00262047 0.01406987 -0.006933126 0.002880215
11 0 1.2013 0.0190781 0.1216676 -0.1300157 0.02967745
12 0 1.4317 0.657269 -0.06227103 0.04082882 -0.004090482
13 0 -1.89432 0.800141 -0.3047384 0.1383335 0.09382588
14 0.894124 1.47064 -0.39701 -0.006568504 -0.309622 -0.3253528
15 0.561685 -0.0639611 0 0.2398047 0.07703094 -0.9696268
16 1.77145 0 0 0 -0.2687162 0
17 2.08 0 0 0.001978908 -0.01014685 -0.1939774
18 0.90245 0 0 0 0 -1.199723
19 0 1.83283 -0.327088 0.1543963 0.02622708 -0.1262156
20 0 0.717162 0.152 -0.06580204 0.04950006 0.05704065
21 0 2.63629 -0.88721 0 0 0
22 -0.894123 1.47063 -0.39701 -0.006563227 0.3096345 0.3253961
23 -0.561687 -0.063961 0 0.1903944 -0.1180837 0.9488543
24 -1.77145 0 0 -0.0003025377 0.1866927 0
25 -2.08 0 0 0.0481571 -0.0524949 0.1077479
26 -0.98902 0 0 0 0 1.057451
time 2
0 0 0 0 0 0 0
1 0.1906518 6.450972 0.2425206 -0.05515012 0.01694675 -0.03119937
2 0.688586 -0.964526 -0.052186 -0.1662529 0.1199093 0.03802797
3 0 -2.32697 -0.119475 0.4681759 -0.008414588 -0.004211664
4 0 -1.63865 0 -0.2468861 -0.01243338 0.005273202
5 0.001767 -1.08533 0.799261 0 0.000190155 0
6 -0.688586 -0.964528 -0.052186 -0.08531078 -0.1055949 -0.05689069
7 0 -2.32697 -0.119475 0.2890503 -0.0571305 -0.01697697
8 0 -1.63865 0 -0.133779 -0.002646758 0.09101118
9 -0.001767 -1.08533 0.795 0 0.000190155 0
10 0 0.45881 0.00262047 0.01406987 -0.006933126 0.002880215
11 0 1.2013 0.0190781 0.1216676 -0.1284161 0.0296143
12 0 1.4317 0.657269 -0.06227103 0.0308905 -0.008254275
13 0 -1.89432 0.800141 -0.3047384 0.1255756 0.07984996
14 0.894124 1.47064 -0.39701 -0.006568504 -0.309622 -0.3253528
15 0.561685 -0.0639611 0 0.2326572 0.08186235 -0.9701726
16 1.77145 0 0 0 -0.2695442 0
17 2.08 0 0 0.002156691 -0.01123185 -0.1939774
18 0.90245 0 0 0 0 -1.19425
19 0 1.83283 -0.327088 0.1543963 0.02622708 -0.1262156
20 0 0.717162 0.152 -0.06580204 0.04811975 0.06038678
21 0 2.63629 -0.88721 0 0 0
22 -0.894123 1.47063 -0.39701 -0.006563227 0.3096345 0.3253961
23 -0.561687 -0.063961 0 0.1973251 -0.1131594 0.9481375
24 -1.77145 0 0 -0.0003025377 0.1858646 0
25 -2.08 0 0 0.0480452 -0.05359411 0.1077479
26 -0.98902 0 0 0 0 1.070647
time 3
0 0 0 0 0 0 0
1 0.1862342 6.450972 0.2425206 -0.05515012 0.01955757 -0.03025999
2 0.688586 -0.964526 -0.052186 -0.1660926 0.1199093 0.037885
3 0 -2.32697 -0.119475 0.4665064 -0.0108492 -0.005378161
4 0 -1.63865 0 -0.245318 -0.01243338 0.005049116
5 0.001767 -1.08533 0.799261 0 0.000190155 0
6 -0.688586 -0.964528 -0.052186 -0.0862382 -0.1055949 -0.05701666
7 0 -2.32697 -0.119475 0.2929285 -0.05951911 -0.01791883
8 0 -1.63865 0 -0.1365644 -0.002646758 0.09074725
9 -0.001767 -1.08533 0.795 0 0.000190155 0
10 0 0.45881 0.00262047 0.01406987 -0.006933126 0.002880215
11 0 1.2013 0.0190781 0.1216676 -0.1260631 0.02952472
12 0 1.4317 0.657269 -0.06227103 0.02074155 -0.01239263
13 0 -1.89432 0.800141 -0.3047384 0.1120325 0.06513597
14 0.894124 1.47064 -0.39701 -0.006568504 -0.309622 -0.3253528
15 0.561685 -0.0639611 0 0.2252378 0.08684798 -0.9707502
16 1.77145 0 0 0 -0.2700275 0
17 2.08 0 0 0.002290905 -0.01219968 -0.1939774
18 0.90245 0 0 0 0 -1.186134
19 0 1.83283 -0.327088 0.1543963 0.02622708 -0.1262156
20 0 0.717162 0.152 -0.06580204 0.04597541 0.06382251
21 0 2.63629 -0.88721 0 0 0
22 -0.894123 1.47063 -0.39701 -0.006563227 0.3096345 0.3253961
23 -0.561687 -0.063961 0 0.2044553 -0.1080933 0.9474664
24 -1.77145 0 0 -0.0003025377 0.1853811 0
25 -2.08 0 0 0.04794985 -0.05457463 0.1077479
26 -0.98902 0 0 0 0 1.08285
time 4
0 0 0 0 0 0 0
1 0.1818758 6.450972 0.2425206 -0.05515012 0.02235227 -0.02939504
2 0.688586 -0.964526 -0.052186 -0.1660017 0.1199093 0.03780236
3 0 -2.32697 -0.119475 0.4649298 -0.01345083 -0.006609926
4 0 -1.63865 0 -0.243771 -0.01243338 0.004862046
5 0.001767 -1.08533 0.799261 0 0.000190155 0
6 -0.688586 -0.964528 -0.052186 -0.08703487 -0.1055949 -0.0570742
7 0 -2.32697 -0.119475 0.296635 -0.06208722 -0.01891144
8 0 -1.63865 0 -0.1392683 -0.002646758 0.09051608
9 -0.001767 -1.08533 0.795 0 0.000190155 0
10 0 0.45881 0.00262047 0.01406987 -0.006933126 0.002880215
11 0 1.2013 0.0190781 0.1216676 -0.1230151 0.02941044
12 0 1.4317 0.657269 -0.06227103 0.01046409 -0.01646579
13 0 -1.89432 0.800141 -0.3047384 0.09775023 0.04989753
14 0.894124 1.47064 -0.39701 -0.006568504 -0.309622 -0.3253528
15 0.561685 -0.0639611 0 0.217631 0.09193722 -0.971354
16 1.77145 0 0 0 -0.2701657 0
17 2.08 0 0 0.002383552 -0.01304702 -0.1939774
18 0.90245 0 0 0 0 -1.175511
19 0 1.83283 -0.327088 0.1543963 0.02622708 -0.1262156
20 0 0.717162 0.152 -0.06580204 0.04312562 0.06732215
21 0 2.63629 -0.88721 0 0 0
22 -0.894123 1.47063 -0.39701 -0.006563227 0.3096345 0.3253961
23 -0.561687 -0.063961 0 0.2117172 -0.1029322 0.9468402
24 -1.77145 0 0 -0.0003025377 0.1852428 0
25 -2.08 0 0 0.04787045 -0.05543307 0.1077479
26 -0.98902 0 0 0 0 1.093886
time 5
0 0 0 0 0 0 0
1 0.1775956 6.450972 0.2425206 -0.05515012 0.02530442 -0.02860344
2 0.688586 -0.964526 -0.052186 -0.1659765 0.1199093 0.03777607
3 0 -2.32697 -0.119475 0.4634492 -0.01619493 -0.007897411
4 0 -1.63865 0 -0.242252 -0.01243338 0.004711257
5 0.001767 -1.08533 0.799261 0 0.000190155 0
6 -0.688586 -0.964528 -0.052186 -0.08770545 -0.1055949 -0.05706804
7 0 -2.32697 -0.119475 0.3001581 -0.06480993 -0.01994633
8 0 -1.63865 0 -0.1418809 -0.002646758 0.09031677
9 -0.001767 -1.08533 0.795 0 0.000190155 0
10 0 0.45881 0.00262047 0.01406987 -0.006933126 0.002880215
11 0 1.2013 0.0190781 0.1216676 -0.1193306 0.02927316
12 0 1.4317 0.657269 -0.06227103 0.0001402274 -0.02043401
13 0 -1.89432 0.800141 -0.3047384 0.0827745 0.03434829
14 0.894124 1.47064 -0.39701 -0.006568504 -0.309622 -0.3253528
15 0.561685 -0.0639611 0 0.2099215 0.09707943 -0.9719784
16 1.77145 0 0 0 -0.2699582 0
17 2.08 0 0 0.002436636 -0.01377052 -0.1939774
18 0.90245 0 0 0 0 -1.162521
19 0 1.83283 -0.327088 0.1543963 0.02622708 -0.1262156
20 0 0.717162 0.152 -0.06580204 0.03962898 0.07086
21 0 2.63629 -0.88721 0 0 0
22 -0.894123 1.47063 -0.39701 -0.006563227 0.3096345 0.3253961
23 -0.561687 -0.063961 0 0.2190426 -0.097723 0.9462581
24 -1.77145 0 0 -0.0003025377 0.1854502 0
25 -2.08 0 0 0.04780638 -0.05616604 0.1077479
26 -0.98902 0 0 0 0 1.103582
time 6
0 0 0 0 0 0 0
1 0.1734127 6.450972 0.2425206 -0.05515012 0.02838759 -0.02788409
2 0.688586 -0.964526 -0.052186 -0.1660134 0.1199093 0.03780212
3 0 -2.32697 -0.119475 0.4620681 -0.01905695 -0.009231068
4 0 -1.63865 0 -0.2407678 -0.01243338 0.004596012
5 0.001767 -1.08533 0.799261 0 0.000190155 0
6 -0.688586 -0.964528 -0.052186 -0.08825461 -0.1055949 -0.05700291
7 0 -2.32697 -0.119475 0.303486 -0.06766231 -0.02101501
8 0 -1.63865 0 -0.1443924 -0.002646758 0.09014846
9 -0.001767 -1.08533 0.795 0 0.000190155 0
10 0 0.45881 0.00262047 0.01406987 -0.006933126 0.002880215
11 0 1.2013 0.0190781 0.1216676 -0.1150679 0.02911461
12 0 1.4317 0.657269 -0.06227103 -0.0101479 -0.02425753
13 0 -1.89432 0.800141 -0.3047384 0.06715117 0.01870191
14 0.894124 1.47064 -0.39701 -0.006568504 -0.309622 -0.3253528
15 0.561685 -0.0639611 0 0.2021941 0.102224 -0.9726179
16 1.77145 0 0 0 -0.2694044 0
17 2.08 0 0 0.00245216 -0.01436682 -0.1939774
18 0.90245 0 0 0 0 -1.147298
19 0 1.83283 -0.327088 0.1543963 0.02622708 -0.1262156
20 0 0.717162 0.152 -0.06580204 0.03554406 0.07441036
21 0 2.63629 -0.88721 0 0 0
22 -0.894123 1.47063 -0.39701 -0.006563227 0.3096345 0.3253961
23 -0.561687 -0.063961 0 0.2263637 -0.09251256 0.9457192
24 -1.77145 0 0 -0.0003025377 0.186004 0
25 -2.08 0 0 0.04775704 -0.05677015 0.1077479
26 -0.98902 0 0 0 0 1.111761
time 7
0 0 0 0 0 0 0
1 0.1693463 6.450972 0.2425206 -0.05515012 0.03157537 -0.02723589
2 0.688586 -0.964526 -0.052186 -0.1661089 0.1199093 0.03787653
3 0 -2.32697 -0.119475 0.4607897 -0.02201234 -0.01060134
4 0 -1.63865 0 -0.239325 -0.01243338 0.004515576
5 0.001767 -1.08533 0.799261 0 0.000190155 0
6 -0.688586 -0.964528 -0.052186 -0.08868701 -0.1055949 -0.05688351
7 0 -2.32697 -0.119475 0.3066073 -0.07061943 -0.02210902
8 0 -1.63865 0 -0.1467929 -0.002646758 0.0900103
9 -0.001767 -1.08533 0.795 0 0.000190155 0
10 0 0.45881 0.00262047 0.01406987 -0.006933126 0.002880215
11 0 1.2013 0.0190781 0.1216676 -0.1102857 0.02893649
12 0 1.4317 0.657269 -0.06227103 -0.02031821 -0.0278966
13 0 -1.89432 0.800141 -0.3047384 0.05092603 0.003171992
14 0.894124 1.47064 -0.39701 -0.006568504 -0.309622 -0.3253528
15 0.561685 -0.0639611 0 0.1945334 0.1073202 -0.9732666
16 1.77145 0 0 0 -0.2685038 0
17 2.08 0 0 0.002432126 -0.01483259 -0.1939774
18 0.90245 0 0 0 0 -1.129982
19 0 1.83283 -0.327088 0.1543963 0.02622708 -0.1262156
20 0 0.717162 0.152 -0.06580204 0.03092944 0.07794754
21 0 2.63629 -0.88721 0 0 0
22 -0.894123 1.47063 -0.39701 -0.006563227 0.3096345 0.3253961
23 -0.561687 -0.063961 0 0.2336123 -0.08734775 0.9452225
24 -1.77145 0 0 -0.0003025377 0.1869046 0
25 -2.08 0 0 0.04772179 -0.05724201 0.1077479
26 -0.98902 0 0 0 0 1.118249
time 8
0 0 0 0 0 0 0
1 0.1654153 6.450972 0.2425206 -0.05515012 0.03484132 -0.02665774
2 0.688586 -0.964526 -0.052186 -0.1662594 0.1199093 0.03799529
3 0 -2.32697 -0.119475 0.4596173 -0.02503656 -0.01199869
4 0 -1.63865 0 -0.2379306 -0.01243338 0.004469213
5 0.001767 -1.08533 0.799261 0 0.000190155 0
6 -0.688586 -0.964528 -0.052186 -0.08900733 -0.1055949 -0.05671456
7 0 -2.32697 -0.119475 0.3095102 -0.07365641 -0.02321986
8 0 -1.63865 0 -0.1490726 -0.002646758 0.08990142
9 -0.001767 -1.08533 0.795 0 0.000190155 0
10 0 0.45881 0.00262047 0.01406987 -0.006933126 0.002880215
11 0 1.2013 0.0190781 0.1216676 -0.1050422 0.02874053
12 0 1.4317 0.657269 -0.06227103 -0.03028856 -0.03131147
13 0 -1.89432 0.800141 -0.3047384 0.03414492 -0.0120278
14 0.894124 1.47064 -0.39701 -0.006568504 -0.309622 -0.3253528
15 0.561685 -0.0639611 0 0.187024 0.1123176 -0.9739191
16 1.77145 0 0 0 -0.2672557 0
17 2.08 0 0 0.002378538 -0.01516447 -0.1939774
18 0.90245 0 0 0 0 -1.110709
19 0 1.83283 -0.327088 0.1543963 0.02622708 -0.1262156
20 0 0.717162 0.152 -0.06580204 0.02584372 0.08144584
21 0 2.63629 -0.88721 0 0 0
22 -0.894123 1.47063 -0.39701 -0.006563227 0.3096345 0.3253961
23 -0.561687 -0.063961 0 0.2407205 -0.08227544 0.9447672
24 -1.77145 0 0 -0.0003025377 0.1881526 0
25 -2.08 0 0 0.04770004 -0.05757823 0.1077479
26 -0.98902 0 0 0 0 1.122872
time 9
0 0 0 0 0 0 0
1 0.161639 6.450972 0.2425206 -0.05515012 0.03815902 -0.02614856
2 0.688586 -0.964526 -0.052186 -0.1664613 0.1199093 0.03815443
3 0 -2.32697 -0.119475 0.4585542 -0.02810506 -0.01341355
4 0 -1.63865 0 -0.2365913 -0.01243338 0.004456187
5 0.001767 -1.08533 0.799261 0 0.000190155 0
6 -0.688586 -0.964528 -0.052186 -0.08922024 -0.1055949 -0.0565008
7 0 -2.32697 -0.119475 0.3121831 -0.07674829 -0.02433906
8 0 -1.63865 0 -0.1512216 -0.002646758 0.08982094
9 -0.001767 -1.08533 0.795 0 0.000190155 0
10 0 0.45881 0.00262047 0.01406987 -0.006933126 0.002880215
11 0 1.2013 0.0190781 0.1216676 -0.09939586 0.02852844
12 0 1.4317 0.657269 -0.06227103 -0.03997683 -0.03446238
13 0 -1.89432 0.800141 -0.3047384 0.01685368 -0.02668388
14 0.894124 1.47064 -0.39701 -0.006568504 -0.309622 -0.3253528
15 0.561685 -0.0639611 0 0.1797506 0.1171653 -0.9745696
16 1.77145 0 0 0 -0.2656597 0
17 2.08 0 0 0.002293399 -0.01535913 -0.1939774
18 0.90245 0 0 0 0 -1.089615
19 0 1.83283 -0.327088 0.1543963 0.02622708 -0.1262156
20 0 0.717162 0.152 -0.06580204 0.02034546 0.08487957
21 0 2.63629 -0.88721 0 0 0
22 -0.894123 1.47063 -0.39701 -0.006563227 0.3096345 0.3253961
23 -0.561687 -0.063961 0 0.2476202 -0.07734251 0.9443524
24 -1.77145 0 0 -0.0003025377 0.1897487 0
25 -2.08 0 0 0.04769117 -0.05777542 0.1077479
26 -0.98902 0 0 0 0 1.125453
time 10
0 0 0 0 0 0 0
1 0.1580363 6.450972 0.2425206 -0.05515012 0.04150204 -0.02570726
2 0.688586 -0.964526 -0.052186 -0.1667109 0.1199093 0.03834993
3 0 -2.32697 -0.119475 0.4576038 -0.0311933 -0.01483638
4 0 -1.63865 0 -0.2353139 -0.01243338 0.004475761
5 0.001767 -1.08533 0.799261 0 0.000190155 0
6 -0.688586 -0.964528 -0.052186 -0.0893304 -0.1055949 -0.05624692
7 0 -2.32697 -0.119475 0.3146144 -0.07987017 -0.02545814
8 0 -1.63865 0 -0.1532302 -0.002646758 0.08976801
9 -0.001767 -1.08533 0.795 0 0.000190155 0
10 0 0.45881 0.00262047 0.01406987 -0.006933126 0.002880215
11 0 1.2013 0.0190781 0.1216676 -0.09340522 0.02830193
12 0 1.4317 0.657269 -0.06227103 -0.04930092 -0.03730957
13 0 -1.89432 0.800141 -0.3047384 -0.0009018779 -0.04058255
14 0.894124 1.47064 -0.39701 -0.006568504 -0.309622 -0.3253528
15 0.561685 -0.0639611 0 0.1727979 0.1218129 -0.9752125
16 1.77145 0 0 0 -0.263715 0
17 2.08 0 0 0.002178712 -0.01541321 -0.1939774
18 0.90245 0 0 0 0 -1.067005
19 0 1.83283 -0.327088 0.1543963 0.02622708 -0.1262156
20 0 0.717162 0.152 -0.06580204 0.01449326 0.08822303
21 0 2.63629 -0.88721 0 0 0
22 -0.894123 1.47063 -0.39701 -0.006563227 0.3096345 0.3253961
23 -0.561687 -0.063961 0 0.2542433 -0.07259583 0.9439773
24 -1.77145 0 0 -0.0003025377 0.1916934 0
25 -2.08 0 0 0.04769456 -0.0578302 0.1077479
26 -0.98902 0 0 0 0 1.12582
time 11
0 0 0 0 0 0 0
1 0.1546265 6.450972 0.2425206 -0.05515012 0.04484395 -0.02533272
2 0.688586 -0.964526 -0.052186 -0.1670048 0.1199093 0.0385778
3 0 -2.32697 -0.119475 0.4567693 -0.03427671 -0.01625764
4 0 -1.63865 0 -0.2341051 -0.01243338 0.004527201
5 0.001767 -1.08533 0.799261 0 0.000190155 0
6 -0.688586 -0.964528 -0.052186 -0.08934246 -0.1055949 -0.05595767
7 0 -2.32697 -0.119475 0.3167923 -0.08299714 -0.02656862
8 0 -1.63865 0 -0.1550884 -0.002646758 0.08974176
9 -0.001767 -1.08533 0.795 0 0.000190155 0
10 0 0.45881 0.00262047 0.01406987 -0.006933126 0.002880215
11 0 1.2013 0.0190781 0.1216676 -0.08712866 0.02806273
12 0 1.4317 0.657269 -0.06227103 -0.05817872 -0.03981331
13 0 -1.89432 0.800141 -0.3047384 -0.01907594 -0.0535102
14 0.894124 1.47064 -0.39701 -0.006568504 -0.309622 -0.3253528
15 0.561685 -0.0639611 0 0.1662505 0.1262097 -0.9758422
16 1.77145 0 0 0 -0.2614213 0
17 2.08 0 0 0.00203648 -0.01532337 -0.1939774
18 0.90245 0 0 0 0 -1.043248
19 0 1.83283 -0.327088 0.1543963 0.02622708 -0.1262156
20 0 0.717162 0.152 -0.06580204 0.008345701 0.09145052
21 0 2.63629 -0.88721 0 0 0
22 -0.894123 1.47063 -0.39701 -0.006563227 0.3096345 0.3253961
23 -0.561687 -0.063961 0 0.2605221 -0.06808226 0.9436408
24 -1.77145 0 0 -0.0003025377 0.1939872 0
25 -2.08 0 0 0.04770961 -0.05773916 0.1077479
26 -0.98902 0 0 0 0 1.123797
time 12
0 0 0 0 0 0 0
1 0.1514286 6.450972 0.2425206 -0.05515012 0.04815834 -0.02502387
2 0.688586 -0.964526 -0.052186 -0.1673392 0.1199093 0.03883405
3 0 -2.32697 -0.119475 0.456054 -0.03733077 -0.01766776
4 0 -1.63865 0 -0.2329719 -0.01243338 0.00460977
5 0.001767 -1.08533 0.799261 0 0.000190155 0
6 -0.688586 -0.964528 -0.052186 -0.08926112 -0.1055949 -0.05563774
7 0 -2.32697 -0.119475 0.3187053 -0.08610427 -0.02766201
8 0 -1.63865 0 -0.1567865 -0.002646758 0.08974132
9 -0.001767 -1.08533 0.795 0 0.000190155 0
10 0 0.45881 0.00262047 0.01406987 -0.006933126 0.002880215
11 0 1.2013 0.0190781 0.1216676 -0.08062463 0.02781253
12 0 1.4317 0.657269 -0.06227103 -0.0665281 -0.04193382
13 0 -1.89432 0.800141 -0.3047384 -0.0376227 -0.06525318
14 0.894124 1.47064 -0.39701 -0.006568504 -0.309622 -0.3253528
15 0.561685 -0.0639611 0 0.1601932 0.130305 -0.9764531
16 1.77145 0 0 0 -0.2587778 0
17 2.08 0 0 0.001868705 -0.01508628 -0.1939774
18 0.90245 0 0 0 0 -1.018576
19 0 1.83283 -0.327088 0.1543963 0.02622708 -0.1262156
20 0 0.717162 0.152 -0.06580204 0.001961353 0.09453633
21 0 2.63629 -0.88721 0 0 0
22 -0.894123 1.47063 -0.39701 -0.006563227 0.3096345 0.3253961
23 -0.561687 -0.063961 0 0.2663883 -0.06384866 0.9433423
24 -1.77145 0 0 -0.0003025377 0.1966307 0
25 -2.08 0 0 0.04773569 -0.05749893 0.1077479
26 -0.98902 0 0 0 0 1.118943
time 13
0 0 0 0 0 0 0
1 0.1484618 6.450972 0.2425206 -0.05515012 0.05141877 -0.0247796
2 0.688586 -0.964526 -0.052186 -0.1677107 0.1199093 0.03911469
3 0 -2.32697 -0.119475 0.4554613 -0.04033091 -0.0190572
4 0 -1.63865 0 -0.2319208 -0.01243338 0.004722733
5 0.001767 -1.08533 0.799261 0 0.000190155 0
6 -0.688586 -0.964528 -0.052186 -0.08909103 -0.1055949 -0.05529187
7 0 -2.32697 -0.119475 0.3203417 -0.08916665 -0.02872984
8 0 -1.63865 0 -0.1583146 -0.002646758 0.08976584
9 -0.001767 -1.08533 0.795 0 0.000190155 0
10 0 0.45881 0.00262047 0.01406987 -0.006933126 0.002880215
11 0 1.2013 0.0190781 0.1216676 -0.07395153 0.02755307
12 0 1.4317 0.657269 -0.06227103 -0.07426694 -0.04363136
13 0 -1.89432 0.800141 -0.3047384 -0.05649632 -0.07588799
14 0.894124 1.47064 -0.39701 -0.006568504 -0.309622 -0.3253528
15 0.561685 -0.0639611 0 0.1547105 0.1340482 -0.9770395
16 1.77145 0 0 0 -0.2557841 0
17 2.08 0 0 0.001677392 -0.01469857 -0.1939774
18 0.90245 0 0 0 0 -0.9932156
19 0 1.83283 -0.327088 0.1543963 0.02622708 -0.1262156
20 0 0.717162 0.152 -0.06580204 -0.00460119 0.09745481
21 0 2.63629 -0.88721 0 0 0
22 -0.894123 1.47063 -0.39701 -0.006563227 0.3096345 0.3253961
23 -0.561687 -0.063961 0 0.271774 -0.05994194 0.9430806
24 -1.77145 0 0 -0.0003025377 0.1996245 0
25 -2.08 0 0 0.0477722 -0.05710611 0.1077479
26 -0.98902 0 0 0 0 1.111071
time 14
0 0 0 0 0 0 0
1 0.145745 6.450972 0.2425206 -0.05515012 0.05459882 -0.02459882
2 0.688586 -0.964526 -0.052186 -0.1681156 0.1199093 0.03941571
3 0 -2.32697 -0.119475 0.4549944 -0.0432526 -0.02041641
4 0 -1.63865 0 -0.2309588 -0.01243338 0.004865353
5 0.001767 -1.08533 0.799261 0 0.000190155 0
6 -0.688586 -0.964528 -0.052186 -0.08883686 -0.1055949 -0.05492477
7 0 -2.32697 -0.119475 0.3216898 -0.09215935 -0.02976363
8 0 -1.63865 0 -0.1596629 -0.002646758 0.08981444
9 -0.001767 -1.08533 0.795 0 0.000190155 0
10 0 0.45881 0.00262047 0.01406987 -0.006933126 0.002880215
11 0 1.2013 0.0190781 0.1216676 -0.06716783 0.02728606
12 0 1.4317 0.657269 -0.06227103 -0.08131315 -0.04486618
13 0 -1.89432 0.800141 -0.3047384 -0.07558572 -0.08565617
14 0.894124 1.47064 -0.39701 -0.006568504 -0.309622 -0.3253528
15 0.561685 -0.0639611 0 0.1498872 0.1373887 -0.9775956
16 1.77145 0 0 0 -0.2524396 0
17 2.08 0 0 0.001464543 -0.01415691 -0.1939774
18 0.90245 0 0 0 0 -0.9673971
19 0 1.83283 -0.327088 0.1543963 0.02622708 -0.1262156
20 0 0.717162 0.152 -0.06580204 -0.01128334 0.1001802
21 0 2.63629 -0.88721 0 0 0
22 -0.894123 1.47063 -0.39701 -0.006563227 0.3096345 0.3253961
23 -0.561687 -0.063961 0 0.2766111 -0.05640893 0.942855
24 -1.77145 0 0 -0.0003025377 0.2029692 0
25 -2.08 0 0 0.04781851 -0.05655731 0.1077479
26 -0.98902 0 0 0 0 1.100411
time 15
0 0 0 0 0 0 0
1 0.1432975 6.450972 0.2425206 -0.05515012 0.05767206 -0.02448044
2 0.688586 -0.964526 -0.052186 -0.1685504 0.1199093 0.03973313
3 0 -2.32697 -0.119475 0.4546567 -0.04607129 -0.02173584
4 0 -1.63865 0 -0.2300926 -0.01243338 0.005036895
5 0.001767 -1.08533 0.799261 0 0.000190155 0
6 -0.688586 -0.964528 -0.052186 -0.08850328 -0.1055949 -0.05454116
7 0 -2.32697 -0.119475 0.3227381 -0.09505745 -0.03075489
8 0 -1.63865 0 -0.1608215 -0.002646758 0.08988626
9 -0.001767 -1.08533 0.795 0 0.000190155 0
10 0 0.45881 0.00262047 0.01406987 -0.006933126 0.002880215
11 0 1.2013 0.0190781 0.1216676 -0.06033196 0.02701321
12 0 1.4317 0.657269 -0.06227103 -0.08758458 -0.04559852
13 0 -1.89432 0.800141 -0.3047384 -0.09436046 -0.09456968
14 0.894124 1.47064 -0.39701 -0.006568504 -0.309622 -0.3253528
15 0.561685 -0.0639611 0 0.1458078 0.1402759 -0.978116
16 1.77145 0 0 0 -0.2487436 0
17 2.08 0 0 0.001232161 -0.01345794 -0.1939774
18 0.90245 0 0 0 0 -0.941349
19 0 1.83283 -0.327088 0.1543963 0.02622708 -0.1262156
20 0 0.717162 0.152 -0.06580204 -0.01802653 0.1026869
21 0 2.63629 -0.88721 0 0 0
22 -0.894123 1.47063 -0.39701 -0.006563227 0.3096345 0.3253961
23 -0.561687 -0.063961 0 0.2808318 -0.05329652 0.9426646
24 -1.77145 0 0 -0.0003025377 0.2066653 0
25 -2.08 0 0 0.04787403 -0.05584916 0.1077479
26 -0.98902 0 0 0 0 1.087194
time 16
0 0 0 0 0 0 0
1 0.1411383 6.450972 0.2425206 -0.05515012 0.06061206 -0.02442337
2 0.688586 -0.964526 -0.052186 -0.1690114 0.1199093 0.04006295
3 0 -2.32697 -0.119475 0.4544514 -0.04876242 -0.02300594
4 0 -1.63865 0 -0.229329 -0.01243338 0.005236622
5 0.001767 -1.08533 0.799261 0 0.000190155 0
6 -0.688586 -0.964528 -0.052186 -0.08809495 -0.1055949 -0.05414576
7 0 -2.32697 -0.119475 0.3234749 -0.09783606 -0.03169516
8 0 -1.63865 0 -0.1617807 -0.002646758 0.08998042
9 -0.001767 -1.08533 0.795 0 0.000190155 0
10 0 0.45881 0.00262047 0.01406987 -0.006933126 0.002880215
11 0 1.2013 0.0190781 0.1216676 -0.05350235 0.02673624
12 0 1.4317 0.657269 -0.06227103 -0.09299912 -0.04578862
13 0 -1.89432 0.800141 -0.3047384 -0.1125198 -0.1026404
14 0.894124 1.47064 -0.39701 -0.006568504 -0.309622 -0.3253528
15 0.561685 -0.0639611 0 0.1424958 0.1426591 -0.9785951
16 1.77145 0 0 0 -0.2448014 0
17 2.08 0 0 0.0009822483 -0.01259834 -0.1939774
18 0.90245 0 0 0 0 -0.9153006
19 0 1.83283 -0.327088 0.1543963 0.02622708 -0.1262156
20 0 0.717162 0.152 -0.06580204 -0.02477217 0.1049491
21 0 2.63629 -0.88721 0 0 0
22 -0.894123 1.47063 -0.39701 -0.006563227 0.3096345 0.3253961
23 -0.561687 -0.063961 0 0.2843678 -0.05065158 0.9425085
24 -1.77145 0 0 -0.0003025377 0.2106077 0
25 -2.08 0 0 0.04793812 -0.05497824 0.1077479
26 -0.98902 0 0 0 0 1.071651
time 17
0 0 0 0 0 0 0
1 0.1392865 6.450972 0.2425206 -0.05515012 0.06339241 -0.0244265
2 0.688586 -0.964526 -0.052186 -0.1694952 0.1199093 0.04040117
3 0 -2.32697 -0.119475 0.4543819 -0.05130145 -0.02421715
4 0 -1.63865 0 -0.2286748 -0.01243338 0.005463799
5 0.001767 -1.08533 0.799261 0 0.000190155 0
6 -0.688586 -0.964528 -0.052186 -0.08761656 -0.1055949 -0.05374329
7 0 -2.32697 -0.119475 0.3238884 -0.1004702 -0.03257594
8 0 -1.63865 0 -0.1625305 -0.002646758 0.09009607
9 -0.001767 -1.08533 0.795 0 0.000190155 0
10 0 0.45881 0.00262047 0.01406987 -0.006933126 0.002880215
11 0 1.2013 0.0190781 0.1216676 -0.04673743 0.02645687
12 0 1.4317 0.657269 -0.06227103 -0.09747469 -0.04539675
13 0 -1.89432 0.800141 -0.3047384 -0.1298279 -0.1098803
14 0.894124 1.47064 -0.39701 -0.006568504 -0.309622 -0.3253528
15 0.561685 -0.0639611 0 0.1398953 0.1444876 -0.979027
16 1.77145 0 0 0 -0.2407454 0
17 2.08 0 0 0.0007168092 -0.01157474 -0.1939774
18 0.90245 0 0 0 0 -0.8894807
19 0 1.83283 -0.327088 0.1543963 0.02622708 -0.1262156
20 0 0.717162 0.152 -0.06580204 -0.03146167 0.1069411
21 0 2.63629 -0.88721 0 0 0
22 -0.894123 1.47063 -0.39701 -0.006563227 0.3096345 0.3253961
23 -0.561687 -0.063961 0 0.2871513 -0.04852097 0.9423859
24 -1.77145 0 0 -0.0003025377 0.2146638 0
25 -2.08 0 0 0.04801019 -0.05394118 0.1077479
26 -0.98902 0 0 0 0 1.054014
time 18
0 0 0 0 0 0 0
1 0.1377613 6.450972 0.2425206 -0.05515012 0.06598668 -0.02448874
2 0.688586 -0.964526 -0.052186 -0.1699979 0.1199093 0.04074381
3 0 -2.32697 -0.119475 0.4544514 -0.05366383 -0.02535994
4 0 -1.63865 0 -0.2281368 -0.01243338 0.00571769
5 0.001767 -1.08533 0.799261 0 0.000190155 0
6 -0.688586 -0.964528 -0.052186 -0.08707274 -0.1055949 -0.05333847
7 0 -2.32697 -0.119475 0.3239672 -0.1029351 -0.03338876
8 0 -1.63865 0 -0.1630611 -0.002646758 0.09023235
9 -0.001767 -1.08533 0.795 0 0.000190155 0
10 0 0.45881 0.00262047 0.01406987 -0.006933126 0.002880215
11 0 1.2013 0.0190781 0.1216676 -0.04009563 0.0261768
12 0 1.4317 0.657269 -0.06227103 -0.1009291 -0.04441766
13 0 -1.89432 0.800141 -0.3047384 -0.1460486 -0.1163012
14 0.894124 1.47064 -0.39701 -0.006568504 -0.309622 -0.3253528
15 0.561685 -0.0639611 0 0.1379769 0.1457967 -0.9794064
16 1.77145 0 0 0 -0.2366074 0
17 2.08 0 0 0.0004378461 -0.01038381 -0.1939774
18 0.90245 0 0 0 0 -0.8641183
19 0 1.83283 -0.327088 0.1543963 0.02622708 -0.1262156
20 0 0.717162 0.152 -0.06580204 -0.03803646 0.1086373
21 0 2.63629 -0.88721 0 0 0
22 -0.894123 1.47063 -0.39701 -0.006563227 0.3096345 0.3253961
23 -0.561687 -0.063961 0 0.2891383 -0.04695158 0.9422957
24 -1.77145 0 0 -0.0003025377 0.2188019 0
25 -2.08 0 0 0.0480896 -0.05273458 0.1077479
26 -0.98902 0 0 0 0 1.034514
time 19
0 0 0 0 0 0 0
1 0.1365816 6.450972 0.2425206 -0.05515012 0.06836842 -0.024609
2 0.688586 -0.964526 -0.052186 -0.1705162 0.1199093 0.04108685
3 0 -2.32697 -0.119475 0.4546633 -0.05582502 -0.02642475
4 0 -1.63865 0 -0.2277217 -0.01243338 0.00599756
5 0.001767 -1.08533 0.799261 0 0.000190155 0
6 -0.688586 -0.964528 -0.052186 -0.0864682 -0.1055949 -0.05293602
7 0 -2.32697 -0.119475 0.3236994 -0.1052056 -0.03412513
8 0 -1.63865 0 -0.1633627 -0.002646758 0.09038838
9 -0.001767 -1.08533 0.795 0 0.000190155 0
10 0 0.45881 0.00262047 0.01406987 -0.006933126 0.002880215
11 0 1.2013 0.0190781 0.1216676 -0.0336354 0.02589776
12 0 1.4317 0.657269 -0.06227103 -0.1032803 -0.04305437
13 0 -1.89432 0.800141 -0.3047384 -0.1609461 -0.1219151
14 0.894124 1.47064 -0.39701 -0.006568504 -0.309622 -0.3253528
15 0.561685 -0.0639611 0 0.1367106 0.1466724 -0.9797273
16 1.77145 0 0 0 -0.2324192 0
17 2.08 0 0 0.0001473627 -0.009022198 -0.1939774
18 0.90245 0 0 0 0 -0.8394423
19 0 1.83283 -0.327088 0.1543963 0.02622708 -0.1262156
20 0 0.717162 0.152 -0.06580204 -0.04443794 0.110012
21 0 2.63629 -0.88721 0 0 0
22 -0.894123 1.47063 -0.39701 -0.006563227 0.3096345 0.3253961
23 -0.561687 -0.063961 0 0.2904507 -0.04599027 0.9422371
24 -1.77145 0 0 -0.0003025377 0.2229902 0
25 -2.08 0 0 0.04817576 -0.05135506 0.1077479
26 -0.98902 0 0 0 0 1.013381
time 20
0 0 0 0 0 0 0
1 0.1357667 6.450972 0.2425206 -0.05515012 0.07051124 -0.02478619
2 0.688586 -0.964526 -0.052186 -0.1710464 0.1199093 0.04142632
3 0 -2.32697 -0.119475 0.4550208 -0.05776046 -0.02740202
4 0 -1.63865 0 -0.2274364 -0.01243338 0.006302672
5 0.001767 -1.08533 0.799261 0 0.000190155 0
6 -0.688586 -0.964528 -0.052186 -0.08580757 -0.1055949 -0.05254065
7 0 -2.32697 -0.119475 0.3230736 -0.107257 -0.03477659
8 0 -1.63865 0 -0.1634255 -0.002646758 0.09056331
9 -0.001767 -1.08533 0.795 0 0.000190155 0
10 0 0.45881 0.00262047 0.01406987 -0.006933126 0.002880215
11 0 1.2013 0.0190781 0.1216676 -0.02741518 0.02562146
12 0 1.4317 0.657269 -0.06227103 -0.1044462 -0.04136636
13 0 -1.89432 0.800141 -0.3047384 -0.1742844 -0.1267339
14 0.894124 1.47064 -0.39701 -0.006568504 -0.309622 -0.3253528
15 0.561685 -0.0639611 0 0.1360669 0.1471342 -0.9799843
16 1.77145 0 0 0 -0.2282125 0
17 2.08 0 0 -0.0001526386 -0.00748656 -0.1939774
18 0.90245 0 0 0 0 -0.8156819
19 0 1.83283 -0.327088 0.1543963 0.02622708 -0.1262156
20 0 0.717162 0.152 -0.06580204 -0.05060755 0.1110394
21 0 2.63629 -0.88721 0 0 0
22 -0.894123 1.47063 -0.39701 -0.006563227 0.3096345 0.3253961
23 -0.561687 -0.063961 0 0.2911411 -0.04564982 0.9422093
24 -1.77145 0 0 -0.0003025377 0.2271969 0
25 -2.08 0 0 0.04826806 -0.04979923 0.1077479
26 -0.98902 0 0 0 0 0.9908475
time 21
0 0 0 0 0 0 0
1 0.1353356 6.450972 0.2425206 -0.05515012 0.07238869 -0.02501921
2 0.688586 -0.964526 -0.052186 -0.1715849 0.1199093 0.04175821
3 0 -2.32697 -0.119475 0.4555274 -0.05944563 -0.02828222
4 0 -1.63865 0 -0.2272876 -0.01243338 0.006632288
5 0.001767 -1.08533 0.799261 0 0.000190155 0
6 -0.688586 -0.964528 -0.052186 -0.08509555 -0.1055949 -0.05215709
7 0 -2.32697 -0.119475 0.3220889 -0.1090643 -0.03533464
8 0 -1.63865 0 -0.1632397 -0.002646758 0.09075626
9 -0.001767 -1.08533 0.795 0 0.000190155 0
10 0 0.45881 0.00262047 0.01406987 -0.006933126 0.002880215
11 0 1.2013 0.0190781 0.1216676 -0.02149341 0.02534962
12 0 1.4317 0.657269 -0.06227103 -0.1043446 -0.03937719
13 0 -1.89432 0.800141 -0.3047384 -0.1858276 -0.1307694
14 0.894124 1.47064 -0.39701 -0.006568504 -0.309622 -0.3253528
15 0.561685 -0.0639611 0 0.1360158 0.1472016 -0.9801716
16 1.77145 0 0 0 -0.2240192 0
17 2.08 0 0 -0.0004601553 -0.005773549 -0.1939774
18 0.90245 0 0 0 0 -0.7930658
19 0 1.83283 -0.327088 0.1543963 0.02622708 -0.1262156
20 0 0.717162 0.152 -0.06580204 -0.05648668 0.1116939
21 0 2.63629 -0.88721 0 0 0
22 -0.894123 1.47063 -0.39701 -0.006563227 0.3096345 0.3253961
23 -0.561687 -0.063961 0 0.2912396 -0.04573592 0.9422114
24 -1.77145 0 0 -0.0003025377 0.2313903 0
25 -2.08 0 0 0.04836586 -0.04806369 0.1077479
26 -0.98902 0 0 0 0 0.9671437
time 22
0 0 0 0 0 0 0
1 0.1353075 6.450972 0.2425206 -0.05515012 0.07397435 -0.02530696
2 0.688586 -0.964526 -0.052186 -0.1721281 0.1199093 0.04207854
3 0 -2.32697 -0.119475 0.4561862 -0.06085594 -0.02905578
4 0 -1.63865 0 -0.2272821 -0.01243338 0.006985677
5 0.001767 -1.08533 0.799261 0 0.000190155 0
6 -0.688586 -0.964528 -0.052186 -0.08433677 -0.1055949 -0.05179005
7 0 -2.32697 -0.119475 0.3208134 -0.1106026 -0.0357908
8 0 -1.63865 0 -0.1627953 -0.002646758 0.09096637
9 -0.001767 -1.08533 0.795 0 0.000190155 0
10 0 0.45881 0.00262047 0.01406987 -0.006933126 0.002880215
11 0 1.2013 0.0190781 0.1216676 -0.01592848 0.02508395
12 0 1.4317 0.657269 -0.06227103 -0.1032007 -0.03711042
13 0 -1.89432 0.800141 -0.3047384 -0.1953396 -0.1340335
14 0.894124 1.47064 -0.39701 -0.006568504 -0.309622 -0.3253528
15 0.561685 -0.0639611 0 0.1365277 0.146894 -0.9802837
16 1.77145 0 0 0 -0.2198711 0
17 2.08 0 0 -0.0007731823 -0.003879821 -0.1939774
18 0.90245 0 0 0 0 -0.7718233
19 0 1.83283 -0.327088 0.1543963 0.02622708 -0.1262156
20 0 0.717162 0.152 -0.06580204 -0.06201678 0.1119498
21 0 2.63629 -0.88721 0 0 0
22 -0.894123 1.47063 -0.39701 -0.006563227 0.3096345 0.3253961
23 -0.561687 -0.063961 0 0.290776 -0.04619375 0.9422424
24 -1.77145 0 0 -0.0003025377 0.2355385 0
25 -2.08 0 0 0.04846857 -0.04614506 0.1077479
26 -0.98902 0 0 0 0 0.9425011
time 23
0 0 0 0 0 0 0
1 0.1357013 6.450972 0.2425206 -0.05515012 0.0752418 -0.02564835
2 0.688586 -0.964526 -0.052186 -0.1726725 0.1199093 0.04238329
3 0 -2.32697 -0.119475 0.4570006 -0.06196688 -0.02971317
4 0 -1.63865 0 -0.2274267 -0.01243338 0.007362098
5 0.001767 -1.08533 0.799261 0 0.000190155 0
6 -0.688586 -0.964528 -0.052186 -0.08353594 -0.1055949 -0.05144426
7 0 -2.32697 -0.119475 0.3192755 -0.1118469 -0.03613661
8 0 -1.63865 0 -0.1620826 -0.002646758 0.09119277
9 -0.001767 -1.08533 0.795 0 0.000190155 0
10 0 0.45881 0.00262047 0.01406987 -0.006933126 0.002880215
11 0 1.2013 0.0190781 0.1216676 -0.01077888 0.02482617
12 0 1.4317 0.657269 -0.06227103 -0.1013377 -0.0345896
13 0 -1.89432 0.800141 -0.3047384 -0.2025846 -0.1365382
14 0.894124 1.47064 -0.39701 -0.006568504 -0.309622 -0.3253528
15 0.561685 -0.0639611 0 0.1375729 0.146231 -0.980315
16 1.77145 0 0 0 -0.2157998 0
17 2.08 0 0 -0.001089718 -0.001880095 -0.1939774
18 0.90245 0 0 0 0 -0.752183
19 0 1.83283 -0.327088 0.1543963 0.02622708 -0.1262156
20 0 0.717162 0.152 -0.06580204 -0.06713923 0.1117814
21 0 2.63629 -0.88721 0 0 0
22 -0.894123 1.47063 -0.39701 -0.006563227 0.3096345 0.3253961
23 -0.561687 -0.063961 0 0.2897803 -0.04700378 0.9423016
24 -1.77145 0 0 -0.0003025377 0.2396098 0
25 -2.08 0 0 0.04857556 -0.04411903 0.1077479
26 -0.98902 0 0 0 0 0.9171506
time 24
0 0 0 0 0 0 0
1 0.1365364 6.450972 0.2425206 -0.05515012 0.0761646 -0.02604229
2 0.688586 -0.964526 -0.052186 -0.1732144 0.1199093 0.04266849
3 0 -2.32697 -0.119475 0.4579613 -0.06275389 -0.03024482
4 0 -1.63865 0 -0.2277282 -0.01243338 0.00776082
5 0.001767 -1.08533 0.799261 0 0.000190155 0
6 -0.688586 -0.964528 -0.052186 -0.0826977 -0.1055949 -0.05112443
7 0 -2.32697 -0.119475 0.3174925 -0.1127724 -0.03636357
8 0 -1.63865 0 -0.1611202 -0.002646758 0.09143461
9 -0.001767 -1.08533 0.795 0 0.000190155 0
10 0 0.45881 0.00262047 0.01406987 -0.006933126 0.002880215
11 0 1.2013 0.0190781 0.1216676 -0.006103014 0.02457799
12 0 1.4317 0.657269 -0.06227103 -0.09879601 -0.03183829
13 0 -1.89432 0.800141 -0.3047384 -0.2073266 -0.1382954
14 0.894124 1.47064 -0.39701 -0.006568504 -0.309622 -0.3253528
15 0.561685 -0.0639611 0 0.1391216 0.1452321 -0.9802597
16 1.77145 0 0 0 -0.2118372 0
17 2.08 0 0 -0.001407761 0.0001361726 -0.1939774
18 0.90245 0 0 0 0 -0.7343743
19 0 1.83283 -0.327088 0.1543963 0.02622708 -0.1262156
20 0 0.717162 0.152 -0.06580204 -0.07179548 0.1112494
21 0 2.63629 -0.88721 0 0 0
22 -0.894123 1.47063 -0.39701 -0.006563227 0.3096345 0.3253961
23 -0.561687 -0.063961 0 0.2882825 -0.04814646 0.9423879
24 -1.77145 0 0 -0.0003025377 0.2435724 0
25 -2.08 0 0 0.04868623 -0.0420762 0.1077479
26 -0.98902 0 0 0 0 0.8913235
time 25
0 0 0 0 0 0 0
1 0.1378316 6.450972 0.2425206 -0.05515012 0.07671634 -0.02648768
2 0.688586 -0.964526 -0.052186 -0.1737502 0.1199093 0.04293013
3 0 -2.32697 -0.119475 0.4589894 -0.06319241 -0.03064119
4 0 -1.63865 0 -0.2281934 -0.01243338 0.008181104
5 0.001767 -1.08533 0.799261 0 0.000190155 0
6 -0.688586 -0.964528 -0.052186 -0.08182673 -0.1055949 -0.05083528
7 0 -2.32697 -0.119475 0.3154818 -0.113354 -0.03646322
8 0 -1.63865 0 -0.159945 -0.002646758 0.09169101
9 -0.001767 -1.08533 0.795 0 0.000190155 0
10 0 0.45881 0.00262047 0.01406987 -0.006933126 0.002880215
11 0 1.2013 0.0190781 0.1216676 -0.001959347 0.02434113
12 0 1.4317 0.657269 -0.06227103 -0.09561601 -0.02888005
13 0 -1.89432 0.800141 -0.3047384 -0.2093296 -0.139317
14 0.894124 1.47064 -0.39701 -0.006568504 -0.309622 -0.3253528
15 0.561685 -0.0639611 0 0.141144 0.1439166 -0.9801122
16 1.77145 0 0 0 -0.208015 0
17 2.08 0 0 -0.001725305 0.002156784 -0.1939774
18 0.90245 0 0 0 0 -0.7186259
19 0 1.83283 -0.327088 0.1543963 0.02622708 -0.1262156
20 0 0.717162 0.152 -0.06580204 -0.07592693 0.1104472
21 0 2.63629 -0.88721 0 0 0
22 -0.894123 1.47063 -0.39701 -0.006563227 0.3096345 0.3253961
23 -0.561687 -0.063961 0 0.2863125 -0.04960225 0.9425006
24 -1.77145 0 0 -0.0003025377 0.2473945 0
25 -2.08 0 0 0.04879996 -0.04002896 0.1077479
26 -0.98902 0 0 0 0 0.8652509
time 26
0 0 0 0 0 0 0
1 0.1396062 6.450972 0.2425206 -0.05515012 0.07687058 -0.02698343
2 0.688586 -0.964526 -0.052186 -0.1742765 0.1199093 0.04316422
3 0 -2.32697 -0.119475 0.4600656 -0.06325791 -0.03089272
4 0 -1.63865 0 -0.228829 -0.01243338 0.008622214
5 0.001767 -1.08533 0.799261 0 0.000190155 0
6 -0.688586 -0.964528 -0.052186 -0.08092769 -0.1055949 -0.05058154
7 0 -2.32697 -0.119475 0.3132607 -0.1135671 -0.03642705
8 0 -1.63865 0 -0.1585724 -0.002646758 0.09196112
9 -0.001767 -1.08533 0.795 0 0.000190155 0
10 0 0.45881 0.00262047 0.01406987 -0.006933126 0.002880215
11 0 1.2013 0.0190781 0.1216676 0.001593729 0.02411731
12 0 1.4317 0.657269 -0.06227103 -0.09183792 -0.02573845
13 0 -1.89432 0.800141 -0.3047384 -0.2084954 -0.1396148
14 0.894124 1.47064 -0.39701 -0.006568504 -0.309622 -0.3253528
15 0.561685 -0.0639611 0 0.1436105 0.1423042 -0.979867
16 1.77145 0 0 0 -0.2043651 0
17 2.08 0 0 -0.002040349 0.004169562 -0.1939774
18 0.90245 0 0 0 0 -0.7051669
19 0 1.83283 -0.327088 0.1543963 0.02622708 -0.1262156
20 0 0.717162 0.152 -0.06580204 -0.07947502 0.1093908
21 0 2.63629 -0.88721 0 0 0
22 -0.894123 1.47063 -0.39701 -0.006563227 0.3096345 0.3253961
23 -0.561687 -0.063961 0 0.2839003 -0.05135163 0.9426387
24 -1.77145 0 0 -0.0003025377 0.2510444 0
25 -2.08 0 0 0.04891613 -0.03798962 0.1077479
26 -0.98902 0 0 0 0 0.839164
time 27
0 0 0 0 0 0 0
1 0.1418792 6.450972 0.2425206 -0.05515012 0.07660091 -0.02752844
2 0.688586 -0.964526 -0.052186 -0.1747895 0.1199093 0.04336677
3 0 -2.32697 -0.119475 0.4611844 -0.06292583 -0.03098988
4 0 -1.63865 0 -0.2296418 -0.01243338 0.009083416
5 0.001767 -1.08533 0.799261 0 0.000190155 0
6 -0.688586 -0.964528 -0.052186 -0.08000525 -0.1055949 -0.05036791
7 0 -2.32697 -0.119475 0.3108467 -0.1133865 -0.03624661
8 0 -1.63865 0 -0.1570178 -0.002646758 0.09224404
9 -0.001767 -1.08533 0.795 0 0.000190155 0
10 0 0.45881 0.00262047 0.01406987 -0.006933126 0.002880215
11 0 1.2013 0.0190781 0.1216676 0.004497748 0.02390824
12 0 1.4317 0.657269 -0.06227103 -0.08750207 -0.02243704
13 0 -1.89432 0.800141 -0.3047384 -0.205593 -0.1394802
14 0.894124 1.47064 -0.39701 -0.006568504 -0.309622 -0.3253528
15 0.561685 -0.0639611 0 0.1464912 0.1404141 -0.9795183
16 1.77145 0 0 0 -0.2009192 0
17 2.08 0 0 -0.002350889 0.006162325 -0.1939774
18 0.90245 0 0 0 0 -0.6942262
19 0 1.83283 -0.327088 0.1543963 0.02622708 -0.1262156
20 0 0.717162 0.152 -0.06580204 -0.08238111 0.1080962
21 0 2.63629 -0.88721 0 0 0
22 -0.894123 1.47063 -0.39701 -0.006563227 0.3096345 0.3253961
23 -0.561687 -0.063961 0 0.2810758 -0.05337505 0.9428013
24 -1.77145 0 0 -0.0003025377 0.2544903 0
25 -2.08 0 0 0.04903413 -0.03597055 0.1077479
26 -0.98902 0 0 0 0 0.8132936
time 28
0 0 0 0 0 0 0
1 0.1446697 6.450972 0.2425206 -0.05515012 0.07598495 -0.02812161
2 0.688586 -0.964526 -0.052186 -0.1752857 0.1199093 0.04353378
3 0 -2.32697 -0.119475 0.4623402 -0.06227637 -0.03092312
4 0 -1.63865 0 -0.230578 -0.01243338 0.009563974
5 0.001767 -1.08533 0.799261 0 0.000190155 0
6 -0.688586 -0.964528 -0.052186 -0.07906408 -0.1055949 -0.05019913
7 0 -2.32697 -0.119475 0.308257 -0.112883 -0.0359134
8 0 -1.63865 0 -0.1552965 -0.002646758 0.09253895
9 -0.001767 -1.08533 0.795 0 0.000190155 0
10 0 0.45881 0.00262047 0.01406987 -0.006933126 0.002880215
11 0 1.2013 0.0190781 0.1216676 0.006694276 0.02371563
12 0 1.4317 0.657269 -0.06227103 -0.08264874 -0.01899937
13 0 -1.89432 0.800141 -0.3047384 -0.2008779 -0.1391644
14 0.894124 1.47064 -0.39701 -0.006568504 -0.309622 -0.3253528
15 0.561685 -0.0639611 0 0.1497565 0.1382661 -0.9790726
16 1.77145 0 0 0 -0.197709 0
17 2.08 0 0 -0.002654923 0.008122895 -0.1939774
18 0.90245 0 0 0 0 -0.6860329
19 0 1.83283 -0.327088 0.1543963 0.02622708 -0.1262156
20 0 0.717162 0.152 -0.06580204 -0.08458668 0.1065794
21 0 2.63629 -0.88721 0 0 0
22 -0.894123 1.47063 -0.39701 -0.006563227 0.3096345 0.3253961
23 -0.561687 -0.063961 0 0.277869 -0.05565298 0.9429876
24 -1.77145 0 0 -0.0003025377 0.2577004 0
25 -2.08 0 0 0.04915336 -0.03398407 0.1077479
26 -0.98902 0 0 0 0 0.7878712
time 29
0 0 0 0 0 0 0
1 0.1479969 6.450972 0.2425206 -0.05515012 0.07513314 -0.02876187
2 0.688586 -0.964526 -0.052186 -0.1757616 0.1199093 0.04366125
3 0 -2.32697 -0.119475 0.4635275 -0.06142021 -0.03068286
4 0 -1.63865 0 -0.2315718 -0.01243338 0.01006315
5 0.001767 -1.08533 0.799261 0 0.000190155 0
6 -0.688586 -0.964528 -0.052186 -0.07810884 -0.1055949 -0.0500799
7 0 -2.32697 -0.119475 0.305509 -0.112158 -0.03541895
8 0 -1.63865 0 -0.1534239 -0.002646758 0.09284496
9 -0.001767 -1.08533 0.795 0 0.000190155 0
10 0 0.45881 0.00262047 0.01406987 -0.006933126 0.002880215
11 0 1.2013 0.0190781 0.1216676 0.008142404 0.02354121
12 0 1.4317 0.657269 -0.06227103 -0.07731822 -0.015449
13 0 -1.89432 0.800141 -0.3047384 -0.1944666 -0.1385942
14 0.894124 1.47064 -0.39701 -0.006568504 -0.309622 -0.3253528
15 0.561685 -0.0639611 0 0.1533766 0.1358794 -0.9786031
16 1.77145 0 0 0 -0.1947664 0
17 2.08 0 0 -0.002950447 0.01003909 -0.1939774
18 0.90245 0 0 0 0 -0.6808159
19 0 1.83283 -0.327088 0.1543963 0.02622708 -0.1262156
20 0 0.717162 0.152 -0.06580204 -0.08605429 0.1048565
21 0 2.63629 -0.88721 0 0 0
22 -0.894123 1.47063 -0.39701 -0.006563227 0.3096345 0.3253961
23 -0.561687 -0.063961 0 0.27431 -0.05816588 0.9431967
24 -1.77145 0 0 -0.0003025377 0.260643 0
25 -2.08 0 0 0.04927319 -0.03204254 0.1077479
26 -0.98902 0 0 0 0 0.7631277
time 30
0 0 0 0 0 0 0
1 0.1518247 6.450972 0.2425206 -0.05515012 0.07405964 -0.0294481
2 0.688586 -0.964526 -0.052186 -0.1762134 0.1199093 0.04374519
3 0 -2.32697 -0.119475 0.4647407 -0.06037001 -0.03026975
4 0 -1.63865 0 -0.2326174 -0.01243338 0.01058021
5 0.001767 -1.08533 0.799261 0 0.000190155 0
6 -0.688586 -0.964528 -0.052186 -0.07714421 -0.1055949 -0.05001496
7 0 -2.32697 -0.119475 0.3026202 -0.1112244 -0.0348152
8 0 -1.63865 0 -0.1514153 -0.002646758 0.0931612
9 -0.001767 -1.08533 0.795 0 0.000190155 0
10 0 0.45881 0.00262047 0.01406987 -0.006933126 0.002880215
11 0 1.2013 0.0190781 0.1216676 0.008928383 0.02338668
12 0 1.4317 0.657269 -0.06227103 -0.0715508 -0.01180951
13 0 -1.89432 0.800141 -0.3047384 -0.1864758 -0.1376963
14 0.894124 1.47064 -0.39701 -0.006568504 -0.309622 -0.3253528
15 0.561685 -0.0639611 0 0.1573217 0.1332736 -0.9781246
16 1.77145 0 0 0 -0.1921231 0
17 2.08 0 0 -0.003235458 0.01189874 -0.1939774
18 0.90245 0 0 0 0 -0.6788042
19 0 1.83283 -0.327088 0.1543963 0.02622708 -0.1262156
20 0 0.717162 0.152 -0.06580204 -0.08689222 0.1029435
21 0 2.63629 -0.88721 0 0 0
22 -0.894123 1.47063 -0.39701 -0.006563227 0.3096345 0.3253961
23 -0.561687 -0.063961 0 0.2704284 -0.06089421 0.9434276
24 -1.77145 0 0 -0.0003025377 0.2632862 0
25 -2.08 0 0 0.04939301 -0.0301583 0.1077479
26 -0.98902 0 0 0 0 0.7392944
time 31
0 0 0 0 0 0 0
1 0.1558083 6.450972 0.2425206 -0.05515012 0.07277864 -0.03017921
2 0.688586 -0.964526 -0.052186 -0.1766376 0.1199093 0.04378161
3 0 -2.32697 -0.119475 0.4659742 -0.05913838 -0.02974494
4 0 -1.63865 0 -0.2337089 -0.01243338 0.01111441
5 0.001767 -1.08533 0.799261 0 0.000190155 0
6 -0.688586 -0.964528 -0.052186 -0.07617486 -0.1055949 -0.05000901
7 0 -2.32697 -0.119475 0.2996078 -0.1100954 -0.03416579
8 0 -1.63865 0 -0.1492862 -0.002646758 0.09348681
9 -0.001767 -1.08533 0.795 0 0.000190155 0
10 0 0.45881 0.00262047 0.01406987 -0.006933126 0.002880215
11 0 1.2013 0.0190781 0.1216676 0.009100402 0.02325377
12 0 1.4317 0.657269 -0.06227103 -0.0653868 -0.008104428
13 0 -1.89432 0.800141 -0.3047384 -0.177022 -0.1363974
14 0.894124 1.47064 -0.39701 -0.006568504 -0.309622 -0.3253528
15 0.561685 -0.0639611 0 0.1615622 0.1304682 -0.9776386
16 1.77145 0 0 0 -0.1898109 0
17 2.08 0 0 -0.003507954 0.01368965 -0.1939774
18 0.90245 0 0 0 0 -0.6794721
19 0 1.83283 -0.327088 0.1543963 0.02622708 -0.1262156
20 0 0.717162 0.152 -0.06580204 -0.08714956 0.1008563
21 0 2.63629 -0.88721 0 0 0
22 -0.894123 1.47063 -0.39701 -0.006563227 0.3096345 0.3253961
23 -0.561687 -0.063961 0 0.2662545 -0.06381844 0.9436796
24 -1.77145 0 0 -0.0003025377 0.2655983 0
25 -2.08 0 0 0.04951221 -0.02834368 0.1077479
26 -0.98902 0 0 0 0 0.7166021
time 32
0 0 0 0 0 0 0
1 0.1598696 6.450972 0.2425206 -0.05515012 0.07130436 -0.03093255
2 0.688586 -0.964526 -0.052186 -0.1770308 0.1199093 0.04376651
3 0 -2.32697 -0.119475 0.4672226 -0.05773795 -0.02912583
4 0 -1.63865 0 -0.2348404 -0.01243338 0.01166503
5 0.001767 -1.08533 0.799261 0 0.000190155 0
6 -0.688586 -0.964528 -0.052186 -0.07520543 -0.1055949 -0.05006678
7 0 -2.32697 -0.119475 0.2964892 -0.108784 -0.03347466
8 0 -1.63865 0 -0.1470519 -0.002646758 0.09382093
9 -0.001767 -1.08533 0.795 0 0.000190155 0
10 0 0.45881 0.00262047 0.01406987 -0.006933126 0.002880215
11 0 1.2013 0.0190781 0.1216676 0.008691033 0.02314419
12 0 1.4317 0.657269 -0.06227103 -0.05886647 -0.004357337
13 0 -1.89432 0.800141 -0.3047384 -0.1662219 -0.1346241
14 0.894124 1.47064 -0.39701 -0.006568504 -0.309622 -0.3253528
15 0.561685 -0.0639611 0 0.1660682 0.1274827 -0.9771466
16 1.77145 0 0 0 -0.1878616 0
17 2.08 0 0 -0.003765931 0.01539966 -0.1939774
18 0.90245 0 0 0 0 -0.6820343
19 0 1.83283 -0.327088 0.1543963 0.02622708 -0.1262156
20 0 0.717162 0.152 -0.06580204 -0.08685554 0.09861111
21 0 2.63629 -0.88721 0 0 0
22 -0.894123 1.47063 -0.39701 -0.006563227 0.3096345 0.3253961
23 -0.561687 -0.063961 0 0.2618181 -0.06691903 0.9439517
24 -1.77145 0 0 -0.0003025377 0.2675475 0
25 -2.08 0 0 0.04963018 -0.02661104 0.1077479
26 -0.98902 0 0 0 0 0.6952823
time 33
0 0 0 0 0 0 0
1 0.1639907 6.450972 0.2425206 -0.05515012 0.06965096 -0.03168317
2 0.688586 -0.964526 -0.052186 -0.1773891 0.1199093 0.0436959
3 0 -2.32697 -0.119475 0.4684802 -0.05618135 -0.02841915
4 0 -1.63865 0 -0.2360062 -0.01243338 0.01223133
5 0.001767 -1.08533 0.799261 0 0.000190155 0
6 -0.688586 -0.964528 -0.052186 -0.07424062 -0.1055949 -0.05019298
7 0 -2.32697 -0.119475 0.2932819 -0.1073031 -0.03274577
8 0 -1.63865 0 -0.1447277 -0.002646758 0.0941627
9 -0.001767 -1.08533 0.795 0 0.000190155 0
10 0 0.45881 0.00262047 0.01406987 -0.006933126 0.002880215
11 0 1.2013 0.0190781 0.1216676 0.007732845 0.02305965
12 0 1.4317 0.657269 -0.06227103 -0.05203016 -0.000591788
13 0 -1.89432 0.800141 -0.3047384 -0.154192 -0.1323031
14 0.894124 1.47064 -0.39701 -0.006568504 -0.309622 -0.3253528
15 0.561685 -0.0639611 0 0.1708101 0.1243365 -0.9766502
16 1.77145 0 0 0 -0.1863069 0
17 2.08 0 0 -0.004007386 0.01701657 -0.1939774
18 0.90245 0 0 0 0 -0.6863913
19 0 1.83283 -0.327088 0.1543963 0.02622708 -0.1262156
20 0 0.717162 0.152 -0.06580204 -0.08603937 0.0962238
21 0 2.63629 -0.88721 0 0 0
22 -0.894123 1.47063 -0.39701 -0.006563227 0.3096345 0.3253961
23 -0.561687 -0.063961 0 0.2571492 -0.07017644 0.9442429
24 -1.77145 0 0 -0.0003025377 0.2691021 0
25 -2.08 0 0 0.0497463 -0.02497271 0.1077479
26 -0.98902 0 0 0 0 0.6755659
time 34
0 0 0 0 0 0 0
1 0.1681537 6.450972 0.2425206 -0.05515012 0.06783263 -0.03242839
2 0.688586 -0.964526 -0.052186 -0.1777091 0.1199093 0.04357421
3 0 -2.32697 -0.119475 0.4697415 -0.05448118 -0.02763162
4 0 -1.63865 0 -0.2372004 -0.01243338 0.0127817
5 0.001767 -1.08533 0.799261 0 0.000190155 0
6 -0.688586 -0.964528 -0.052186 -0.07328508 -0.1055949 -0.05035186
7 0 -2.32697 -0.119475 0.2900031 -0.1056659 -0.03198306
8 0 -1.63865 0 -0.1423291 -0.002646758 0.09451124
9 -0.001767 -1.08533 0.795 0 0.000190155 0
10 0 0.45881 0.00262047 0.01406987 -0.006933126 0.002880215
11 0 1.2013 0.0190781 0.1216676 0.006258406 0.02300187
12 0 1.4317 0.657269 -0.06227103 -0.04491812 0.003168663
13 0 -1.89432 0.800141 -0.3047384 -0.1410489 -0.129361
14 0.894124 1.47064 -0.39701 -0.006568504 -0.309622 -0.3253528
15 0.561685 -0.0639611 0 0.1757581 0.121049 -0.9761508
16 1.77145 0 0 0 -0.1851787 0
17 2.08 0 0 -0.004230316 0.01852822 -0.1939774
18 0.90245 0 0 0 0 -0.6924438
19 0 1.83283 -0.327088 0.1543963 0.02622708 -0.1262156
20 0 0.717162 0.152 -0.06580204 -0.08473027 0.09371044
21 0 2.63629 -0.88721 0 0 0
22 -0.894123 1.47063 -0.39701 -0.006563227 0.3096345 0.3253961
23 -0.561687 -0.063961 0 0.2522777 -0.07357114 0.9445525
24 -1.77145 0 0 -0.0003025377 0.2702303 0
25 -2.08 0 0 0.04985995 -0.02344103 0.1077479
26 -0.98902 0 0 0 0 0.6576841
time 35
0 0 0 0 0 0 0
1 0.1723407 6.450972 0.2425206 -0.05515012 0.06586356 -0.03316556
2 0.688586 -0.964526 -0.052186 -0.1779872 0.1199093 0.04345224
3 0 -2.32697 -0.119475 0.471001 -0.05265008 -0.02676994
4 0 -1.63865 0 -0.2384171 -0.01243338 0.0132836
5 0.001767 -1.08533 0.799261 0 0.000190155 0
6 -0.688586 -0.964528 -0.052186 -0.07234349 -0.1055949 -0.0505027
7 0 -2.32697 -0.119475 0.2866702 -0.1038853 -0.03119047
8 0 -1.63865 0 -0.1398713 -0.002646758 0.09486568
9 -0.001767 -1.08533 0.795 0 0.000190155 0
10 0 0.45881 0.00262047 0.01406987 -0.006933126 0.002880215
11 0 1.2013 0.0190781 0.1216676 0.004300286 0.02297256
12 0 1.4317 0.657269 -0.06227103 -0.03757065 0.006900462
13 0 -1.89432 0.800141 -0.3047384 -0.1269092 -0.1257246
14 0.894124 1.47064 -0.39701 -0.006568504 -0.309622 -0.3253528
15 0.561685 -0.0639611 0 0.1808824 0.1176399 -0.9756501
16 1.77145 0 0 0 -0.1845087 0
17 2.08 0 0 -0.004432717 0.01992242 -0.1939774
18 0.90245 0 0 0 0 -0.7000928
19 0 1.83283 -0.327088 0.1543963 0.02622708 -0.1262156
20 0 0.717162 0.152 -0.06580204 -0.08295746 0.09108706
21 0 2.63629 -0.88721 0 0 0
22 -0.894123 1.47063 -0.39701 -0.006563227 0.3096345 0.3253961
23 -0.561687 -0.063961 0 0.2472336 -0.07708359 0.9448797
24 -1.77145 0 0 -0.0003025377 0.2709002 0
25 -2.08 0 0 0.04997053 -0.02202835 0.1077479
26 -0.98902 0 0 0 0 0.6418679
time 36
0 0 0 0 0 0 0
1 0.1765336 6.450972 0.2425206 -0.05515012 0.06375793 -0.03389199
2 0.688586 -0.964526 -0.052186 -0.1782198 0.1199093 0.04333847
3 0 -2.32697 -0.119475 0.472253 -0.05070067 -0.02584086
4 0 -1.63865 0 -0.2396506 -0.01243338 0.01373752
5 0.001767 -1.08533 0.799261 0 0.000190155 0
6 -0.688586 -0.964528 -0.052186 -0.07142051 -0.1055949 -0.0506462
7 0 -2.32697 -0.119475 0.2833006 -0.1019745 -0.03037195
8 0 -1.63865 0 -0.1373698 -0.002646758 0.09522518
9 -0.001767 -1.08533 0.795 0 0.000190155 0
10 0 0.45881 0.00262047 0.01406987 -0.006933126 0.002880215
11 0 1.2013 0.0190781 0.1216676 0.001891059 0.02297345
12 0 1.4317 0.657269 -0.06227103 -0.03002806 0.01058005
13 0 -1.89432 0.800141 -0.3047384 -0.1118895 -0.1213204
14 0.894124 1.47064 -0.39701 -0.006568504 -0.309622 -0.3253528
15 0.561685 -0.0639611 0 0.1861533 0.1141285 -0.9751495
16 1.77145 0 0 0 -0.1843286 0
17 2.08 0 0 -0.004612589 0.02118699 -0.1939774
18 0.90245 0 0 0 0 -0.7092388
19 0 1.83283 -0.327088 0.1543963 0.02622708 -0.1262156
20 0 0.717162 0.152 -0.06580204 -0.08075017 0.08836966
21 0 2.63629 -0.88721 0 0 0
22 -0.894123 1.47063 -0.39701 -0.006563227 0.3096345 0.3253961
23 -0.561687 -0.063961 0 0.2420469 -0.08069424 0.9452233
24 -1.77145 0 0 -0.0003025377 0.2710801 0
25 -2.08 0 0 0.05007741 -0.02074702 0.1077479
26 -0.98902 0 0 0 0 0.6283486
time 37
0 0 0 0 0 0 0
1 0.1807146 6.450972 0.2425206 -0.05515012 0.06152995 -0.03460503
2 0.688586 -0.964526 -0.052186 -0.1784033 0.1199093 0.04323211
3 0 -2.32697 -0.119475 0.4734921 -0.04864557 -0.02485107
4 0 -1.63865 0 -0.2408949 -0.01243338 0.01414398
5 0.001767 -1.08533 0.799261 0 0.000190155 0
6 -0.688586 -0.964528 -0.052186 -0.0705208 -0.1055949 -0.05078312
7 0 -2.32697 -0.119475 0.2799116 -0.09994648 -0.02953145
8 0 -1.63865 0 -0.1348399 -0.002646758 0.09558886
9 -0.001767 -1.08533 0.795 0 0.000190155 0
10 0 0.45881 0.00262047 0.01406987 -0.006933126 0.002880215
11 0 1.2013 0.0190781 0.1216676 -0.0009367121 0.02300625
12 0 1.4317 0.657269 -0.06227103 -0.02233063 0.01418384
13 0 -1.89432 0.800141 -0.3047384 -0.09610645 -0.1160753
14 0.894124 1.47064 -0.39701 -0.006568504 -0.309622 -0.3253528
15 0.561685 -0.0639611 0 0.1915411 0.1105343 -0.9746506
16 1.77145 0 0 0 -0.1846703 0
17 2.08 0 0 -0.004767927 0.02230975 -0.1939774
18 0.90245 0 0 0 0 -0.7197827
19 0 1.83283 -0.327088 0.1543963 0.02622708 -0.1262156
20 0 0.717162 0.152 -0.06580204 -0.07813761 0.08557427
21 0 2.63629 -0.88721 0 0 0
22 -0.894123 1.47063 -0.39701 -0.006563227 0.3096345 0.3253961
23 -0.561687 -0.063961 0 0.2367474 -0.08438358 0.9455826
24 -1.77145 0 0 -0.0003025377 0.2707383 0
25 -2.08 0 0 0.05018 -0.01960937 0.1077479
26 -0.98902 0 0 0 0 0.6173572
time 38
0 0 0 0 0 0 0
1 0.1848657 6.450972 0.2425206 -0.05515012 0.05919377 -0.03530202
2 0.688586 -0.964526 -0.052186 -0.1785341 0.1199093 0.04313231
3 0 -2.32697 -0.119475 0.4747127 -0.0464974 -0.02380731
4 0 -1.63865 0 -0.2421443 -0.01243338 0.0145035
5 0.001767 -1.08533 0.799261 0 0.000190155 0
6 -0.688586 -0.964528 -0.052186 -0.06964903 -0.1055949 -0.05091418
7 0 -2.32697 -0.119475 0.2765207 -0.09781422 -0.02867291
8 0 -1.63865 0 -0.132297 -0.002646758 0.09595585
9 -0.001767 -1.08533 0.795 0 0.000190155 0
10 0 0.45881 0.00262047 0.01406987 -0.006933126 0.002880215
11 0 1.2013 0.0190781 0.1216676 -0.004150458 0.02307267
12 0 1.4317 0.657269 -0.06227103 -0.01451864 0.01768832
13 0 -1.89432 0.800141 -0.3047384 -0.07967655 -0.1099157
14 0.894124 1.47064 -0.39701 -0.006568504 -0.309622 -0.3253528
15 0.561685 -0.0639611 0 0.1970161 0.1068769 -0.9741548
16 1.77145 0 0 0 -0.1854293 0
17 2.08 0 0 -0.004896726 0.02327853 -0.1939774
18 0.90245 0 0 0 0 -0.7316251
19 0 1.83283 -0.327088 0.1543963 0.02622708 -0.1262156
20 0 0.717162 0.152 -0.06580204 -0.075149 0.0827169
21 0 2.63629 -0.88721 0 0 0
22 -0.894123 1.47063 -0.39701 -0.006563227 0.3096345 0.3253961
23 -0.561687 -0.063961 0 0.2313652 -0.08813205 0.9459568
24 -1.77145 0 0 -0.0003025377 0.2699793 0
25 -2.08 0 0 0.05027766 -0.01862774 0.1077479
26 -0.98902 0 0 0 0 0.6091249
time 39
0 0 0 0 0 0 0
1 0.188969 6.450972 0.2425206 -0.05515012 0.05676361 -0.03598028
2 0.688586 -0.964526 -0.052186 -0.1786086 0.1199093 0.04303828
3 0 -2.32697 -0.119475 0.4759092 -0.04426879 -0.02271628
4 0 -1.63865 0 -0.2433929 -0.01243338 0.0148166
5 0.001767 -1.08533 0.799261 0 0.000190155 0
6 -0.688586 -0.964528 -0.052186 -0.06880989 -0.1055949 -0.05104012
7 0 -2.32697 -0.119475 0.2731452 -0.09559081 -0.02780026
8 0 -1.63865 0 -0.1297565 -0.002646758 0.09632529
9 -0.001767 -1.08533 0.795 0 0.000190155 0
10 0 0.45881 0.00262047 0.01406987 -0.006933126 0.002880215
11 0 1.2013 0.0190781 0.1216676 -0.0077176 0.02317442
12 0 1.4317 0.657269 -0.06227103 -0.006632428 0.0210699
13 0 -1.89432 0.800141 -0.3047384 -0.06271647 -0.1027685
14 0.894124 1.47064 -0.39701 -0.006568504 -0.309622 -0.3253528
15 0.561685 -0.0639611 0 0.2025484 0.1031756 -0.9736638
16 1.77145 0 0 0 -0.1864617 0
17 2.08 0 0 -0.004996986 0.02408114 -0.1939774
18 0.90245 0 0 0 0 -0.7446668
19 0 1.83283 -0.327088 0.1543963 0.02622708 -0.1262156
20 0 0.717162 0.152 -0.06580204 -0.07181357 0.07981359
21 0 2.63629 -0.88721 0 0 0
22 -0.894123 1.47063 -0.39701 -0.006563227 0.3096345 0.3253961
23 -0.561687 -0.063961 0 0.2259302 -0.09192012 0.9463447
24 -1.77145 0 0 -0.0003025377 0.2689468 0
25 -2.08 0 0 0.0503698 -0.01781448 0.1077479
26 -0.98902 0 0 0 0 0.6038828
time 40
0 0 0 0 0 0 0
1 0.1930067 6.450972 0.2425206 -0.05515012 0.05425363 -0.03663716
2 0.688586 -0.964526 -0.052186 -0.1786232 0.1199093 0.04294918
3 0 -2.32697 -0.119475 0.4770761 -0.04197235 -0.02158472
4 0 -1.63865 0 -0.2446348 -0.01243338 0.01508378
5 0.001767 -1.08533 0.799261 0 0.000190155 0
6 -0.688586 -0.964528 -0.052186 -0.06800802 -0.1055949 -0.05116168
7 0 -2.32697 -0.119475 0.2698024 -0.09328929 -0.02691747
8 0 -1.63865 0 -0.1272337 -0.002646758 0.09669631
9 -0.001767 -1.08533 0.795 0 0.000190155 0
10 0 0.45881 0.00262047 0.01406987 -0.006933126 0.002880215
11 0 1.2013 0.0190781 0.1216676 -0.01160558 0.02331323
12 0 1.4317 0.657269 -0.06227103 0.001287735 0.02430503
13 0 -1.89432 0.800141 -0.3047384 -0.04534276 -0.09456017
14 0.894124 1.47064 -0.39701 -0.006568504 -0.309622 -0.3253528
15 0.561685 -0.0639611 0 0.2081084 0.09945004 -0.973179
16 1.77145 0 0 0 -0.1877517 0
17 2.08 0 0 -0.005066704 0.02470541 -0.1939774
18 0.90245 0 0 0 0 -0.7588085
19 0 1.83283 -0.327088 0.1543963 0.02622708 -0.1262156
20 0 0.717162 0.152 -0.06580204 -0.06816052 0.07688034
21 0 2.63629 -0.88721 0 0 0
22 -0.894123 1.47063 -0.39701 -0.006563227 0.3096345 0.3253961
23 -0.561687 -0.063961 0 0.2204724 -0.09572826 0.9467458
24 -1.77145 0 0 -0.0003025377 0.2676568 0
25 -2.08 0 0 0.05045579 -0.01718194 0.1077479
26 -0.98902 0 0 0 0 0.601862
time 41
0 0 0 0 0 0 0
1 0.1969606 6.450972 0.2425206 -0.05515012 0.05167804 -0.03726997
2 0.688586 -0.964526 -0.052186 -0.1785765 0.1199093 0.0428642
3 0 -2.32697 -0.119475 0.4782078 -0.03962071 -0.02041934
4 0 -1.63865 0 -0.2458642 -0.01243338 0.01530557
5 0.001767 -1.08533 0.799261 0 0.000190155 0
6 -0.688586 -0.964528 -0.052186 -0.0672481 -0.1055949 -0.05127959
7 0 -2.32697 -0.119475 0.2665097 -0.09092268 -0.02602847
8 0 -1.63865 0 -0.124744 -0.002646758 0.09703953
9 -0.001767 -1.08533 0.795 0 0.000190155 0
10 0 0.45881 0.00262047 0.01406987 -0.006933126 0.002880215
11 0 1.2013 0.0190781 0.1216676 -0.01578181 0.02349081
12 0 1.4317 0.657269 -0.06227103 0.00920156 0.02737015
13 0 -1.89432 0.800141 -0.3047384 -0.02767202 -0.08526569
14 0.894124 1.47064 -0.39701 -0.006568504 -0.309622 -0.3253528
15 0.561685 -0.0639611 0 0.2136662 0.09571958 -0.972702
16 1.77145 0 0 0 -0.1892833 0
17 2.08 0 0 -0.005103053 0.02513916 -0.1939774
18 0.90245 0 0 0 0 -0.7739511
19 0 1.83283 -0.327088 0.1543963 0.02622708 -0.1262156
20 0 0.717162 0.152 -0.06580204 -0.06421909 0.07393318
21 0 2.63629 -0.88721 0 0 0
22 -0.894123 1.47063 -0.39701 -0.006563227 0.3096345 0.3253961
23 -0.561687 -0.063961 0 0.2150218 -0.09953693 0.947159
24 -1.77145 0 0 -0.0003025377 0.2661251 0
25 -2.08 0 0 0.05053502 -0.01674244 0.1077479
26 -0.98902 0 0 0 0 0.6025342
time 42
0 0 0 0 0 0 0
1 0.2008129 6.450972 0.2425206 -0.05515012 0.049051 -0.03787607
2 0.688586 -0.964526 -0.052186 -0.1784807 0.1199093 0.04278252
3 0 -2.32697 -0.119475 0.4792987 -0.03722649 -0.01922685
4 0 -1.63865 0 -0.2470753 -0.01243338 0.01548249
5 0.001767 -1.08533 0.799261 0 0.000190155 0
6 -0.688586 -0.964528 -0.052186 -0.0665348 -0.1055949 -0.05139458
7 0 -2.32697 -0.119475 0.2632844 -0.08850404 -0.02513721
8 0 -1.63865 0 -0.1223027 -0.002646758 0.09732599
9 -0.001767 -1.08533 0.795 0 0.000190155 0
10 0 0.45881 0.00262047 0.01406987 -0.006933126 0.002880215
11 0 1.2013 0.0190781 0.1216676 -0.02021376 0.02370888
12 0 1.4317 0.657269 -0.06227103 0.01706877 0.03024171
13 0 -1.89432 0.800141 -0.3047384 -0.009820879 -0.07518052
14 0.894124 1.47064 -0.39701 -0.006568504 -0.309622 -0.3253528
15 0.561685 -0.0639611 0 0.2191923 0.09200376 -0.9722343
16 1.77145 0 0 0 -0.1910409 0
17 2.08 0 0 -0.005105576 0.0253702 -0.1939774
18 0.90245 0 0 0 0 -0.7899952
19 0 1.83283 -0.327088 0.1543963 0.02622708 -0.1262156
20 0 0.717162 0.152 -0.06580204 -0.0600185 0.07098811
21 0 2.63629 -0.88721 0 0 0
22 -0.894123 1.47063 -0.39701 -0.006563227 0.3096345 0.3253961
23 -0.561687 -0.063961 0 0.2096081 -0.1033266 0.9475834
24 -1.77145 0 0 -0.0003025377 0.2643675 0
25 -2.08 0 0 0.05060688 -0.01650835 0.1077479
26 -0.98902 0 0 0 0 0.6051099
time 43
0 0 0 0 0 0 0
1 0.2045458 6.450972 0.2425206 -0.05515012 0.04638673 -0.03845277
2 0.688586 -0.964526 -0.052186 -0.1783404 0.1199093 0.04270332
3 0 -2.32697 -0.119475 0.4803434 -0.03480232 -0.01801399
4 0 -1.63865 0 -0.2482623 -0.01243338 0.01561504
5 0.001767 -1.08533 0.799261 0 0.000190155 0
6 -0.688586 -0.964528 -0.052186 -0.06587278 -0.1055949 -0.05150739
7 0 -2.32697 -0.119475 0.2601441 -0.08604641 -0.02424764
8 0 -1.63865 0 -0.1199253 -0.002646758 0.09755798
9 -0.001767 -1.08533 0.795 0 0.000190155 0
10 0 0.45881 0.00262047 0.01406987 -0.006933126 0.002880215
11 0 1.2013 0.0190781 0.1216676 -0.02486881 0.02395345
12 0 1.4317 0.657269 -0.06227103 0.02484905 0.03289614
13 0 -1.89432 0.800141 -0.3047384 0.008094138 -0.06444794
14 0.894124 1.47064 -0.39701 -0.006568504 -0.309622 -0.3253528
15 0.561685 -0.0639611 0 0.2246568 0.08832201 -0.9717775
16 1.77145 0 0 0 -0.1930084 0
17 2.08 0 0 -0.005075951 0.02538636 -0.1939774
18 0.90245 0 0 0 0 -0.8068416
19 0 1.83283 -0.327088 0.1543963 0.02622708 -0.1262156
20 0 0.717162 0.152 -0.06580204 -0.05558796 0.06806117
21 0 2.63629 -0.88721 0 0 0
22 -0.894123 1.47063 -0.39701 -0.006563227 0.3096345 0.3253961
23 -0.561687 -0.063961 0 0.2042616 -0.1070777 0.9480182
24 -1.77145 0 0 -0.0003025377 0.2624 0
25 -2.08 0 0 0.05067075 -0.01649199 0.1077479
26 -0.98902 0 0 0 0 0.6094885
time 44
0 0 0 0 0 0 0
1 0.2081411 6.450972 0.2425206 -0.05515012 0.04369938 -0.03899742
2 0.688586 -0.964526 -0.052186 -0.1781581 0.1199093 0.04262578
3 0 -2.32697 -0.119475 0.4813363 -0.03236081 -0.01678746
4 0 -1.63865 0 -0.2494192 -0.01243338 0.01570375
5 0.001767 -1.08533 0.799261 0 0.000190155 0
6 -0.688586 -0.964528 -0.052186 -0.06526671 -0.1055949 -0.05161876
7 0 -2.32697 -0.119475 0.2571059 -0.08356281 -0.02336369
8 0 -1.63865 0 -0.1176271 -0.002646758 0.09773781
9 -0.001767 -1.08533 0.795 0 0.000190155 0
10 0 0.45881 0.00262047 0.01406987 -0.006933126 0.002880215
11 0 1.2013 0.0190781 0.1216676 -0.02971442 0.02420761
12 0 1.4317 0.657269 -0.06227103 0.03250208 0.03530988
13 0 -1.89432 0.800141 -0.3047384 0.02595636 -0.05316471
14 0.894124 1.47064 -0.39701 -0.006568504 -0.309622 -0.3253528
15 0.561685 -0.0639611 0 0.2300299 0.08469386 -0.971333
16 1.77145 0 0 0 -0.1951701 0
17 2.08 0 0 -0.005015851 0.02517546 -0.1939774
18 0.90245 0 0 0 0 -0.824391
19 0 1.83283 -0.327088 0.1543963 0.02622708 -0.1262156
20 0 0.717162 0.152 -0.06580204 -0.05095669 0.06516837
21 0 2.63629 -0.88721 0 0 0
22 -0.894123 1.47063 -0.39701 -0.006563227 0.3096345 0.3253961
23 -0.561687 -0.063961 0 0.199012 -0.1107707 0.9484625
24 -1.77145 0 0 -0.0003025377 0.2602383 0
25 -2.08 0 0 0.05072603 -0.01670571 0.1077479
26 -0.98902 0 0 0 0 0.6155699
time 45
0 0 0 0 0 0 0
1 0.2115811 6.450972 0.2425206 -0.05515012 0.04100316 -0.03950736
2 0.688586 -0.964526 -0.052186 -0.1779362 0.1199093 0.04254909
3 0 -2.32697 -0.119475 0.4822717 -0.02991459 -0.01555398
4 0 -1.63865 0 -0.2505403 -0.01243338 0.01574912
5 0.001767 -1.08533 0.799261 0 0.000190155 0
6 -0.688586 -0.964528 -0.052186 -0.06472126 -0.1055949 -0.05172941
7 0 -2.32697 -0.119475 0.2541873 -0.08106629 -0.02248932
8 0 -1.63865 0 -0.1154234 -0.002646758 0.09786778
9 -0.001767 -1.08533 0.795 0 0.000190155 0
10 0 0.45881 0.00262047 0.01406987 -0.006933126 0.002880215
11 0 1.2013 0.0190781 0.1216676 -0.03471802 0.02447
12 0 1.4317 0.657269 -0.06227103 0.03998762 0.03745938
13 0 -1.89432 0.800141 -0.3047384 0.04364925 -0.04142758
14 0.894124 1.47064 -0.39701 -0.006568504 -0.309622 -0.3253528
15 0.561685 -0.0639611 0 0.2352821 0.08113874 -0.9709023
16 1.77145 0 0 0 -0.19751 0
17 2.08 0 0 -0.004926953 0.02472533 -0.1939774
18 0.90245 0 0 0 0 -0.8425442
19 0 1.83283 -0.327088 0.1543963 0.02622708 -0.1262156
20 0 0.717162 0.152 -0.06580204 -0.04615391 0.06232574
21 0 2.63629 -0.88721 0 0 0
22 -0.894123 1.47063 -0.39701 -0.006563227 0.3096345 0.3253961
23 -0.561687 -0.063961 0 0.1938893 -0.1143861 0.9489154
24 -1.77145 0 0 -0.0003025377 0.2578984 0
25 -2.08 0 0 0.05077209 -0.01716186 0.1077479
26 -0.98902 0 0 0 0 0.6232541
time 46
0 0 0 0 0 0 0
1 0.2148477 6.450972 0.2425206 -0.05515012 0.03831225 -0.0399799
2 0.688586 -0.964526 -0.052186 -0.1776773 0.1199093 0.04247242
3 0 -2.32697 -0.119475 0.4831442 -0.02747628 -0.01432029
4 0 -1.63865 0 -0.2516198 -0.01243338 0.01575169
5 0.001767 -1.08533 0.799261 0 0.000190155 0
6 -0.688586 -0.964528 -0.052186 -0.0642411 -0.1055949 -0.0518401
7 0 -2.32697 -0.119475 0.2514056 -0.0785699 -0.02162847
8 0 -1.63865 0 -0.1133296 -0.002646758 0.09795018
9 -0.001767 -1.08533 0.795 0 0.000190155 0
10 0 0.45881 0.00262047 0.01406987 -0.006933126 0.002880215
11 0 1.2013 0.0190781 0.1216676 -0.03984703 0.02473924
12 0 1.4317 0.657269 -0.06227103 0.04726534 0.03932107
13 0 -1.89432 0.800141 -0.3047384 0.0610562 -0.02933331
14 0.894124 1.47064 -0.39701 -0.006568504 -0.309622 -0.3253528
15 0.561685 -0.0639611 0 0.2403834 0.07767617 -0.9704872
16 1.77145 0 0 0 -0.2000123 0
17 2.08 0 0 -0.00481093 0.02408779 -0.1939774
18 0.90245 0 0 0 0 -0.8612018
19 0 1.83283 -0.327088 0.1543963 0.02622708 -0.1262156
20 0 0.717162 0.152 -0.06580204 -0.04120885 0.05954928
21 0 2.63629 -0.88721 0 0 0
22 -0.894123 1.47063 -0.39701 -0.006563227 0.3096345 0.3253961
23 -0.561687 -0.063961 0 0.1889236 -0.1179044 0.9493759
24 -1.77145 0 0 -0.0003025377 0.2553961 0
25 -2.08 0 0 0.05080832 -0.0178079 0.1077479
26 -0.98902 0 0 0 0 0.632441
time 47
0 0 0 0 0 0 0
1 0.2179231 6.450972 0.2425206 -0.05515012 0.03564085 -0.0404124
2 0.688586 -0.964526 -0.052186 -0.1773839 0.1199093 0.04239496
3 0 -2.32697 -0.119475 0.4839482 -0.0250585 -0.01309309
4 0 -1.63865 0 -0.2526517 -0.01243338 0.01571195
5 0.001767 -1.08533 0.799261 0 0.000190155 0
6 -0.688586 -0.964528 -0.052186 -0.0638309 -0.1055949 -0.05195154
7 0 -2.32697 -0.119475 0.2487782 -0.07608666 -0.02078508
8 0 -1.63865 0 -0.1113612 -0.002646758 0.09798732
9 -0.001767 -1.08533 0.795 0 0.000190155 0
10 0 0.45881 0.00262047 0.01406987 -0.006933126 0.002880215
11 0 1.2013 0.0190781 0.1216676 -0.0450689 0.02501399
12 0 1.4317 0.657269 -0.06227103 0.05429497 0.04087142
13 0 -1.89432 0.800141 -0.3047384 0.07806063 -0.01697864
14 0.894124 1.47064 -0.39701 -0.006568504 -0.309622 -0.3253528
15 0.561685 -0.0639611 0 0.2453042 0.07432559 -0.9700889
16 1.77145 0 0 0 -0.2026611 0
17 2.08 0 0 -0.004669458 0.02333153 -0.1939774
18 0.90245 0 0 0 0 -0.8802648
19 0 1.83283 -0.327088 0.1543963 0.02622708 -0.1262156
20 0 0.717162 0.152 -0.06580204 -0.03615073 0.05685504
21 0 2.63629 -0.88721 0 0 0
22 -0.894123 1.47063 -0.39701 -0.006563227 0.3096345 0.3253961
23 -0.561687 -0.063961 0 0.1841374 -0.1213059 0.9498433
24 -1.77145 0 0 -0.0003025377 0.2527473 0
25 -2.08 0 0 0.05083411 -0.01857423 0.1077479
26 -0.98902 0 0 0 0 0.6430302
time 48
0 0 0 0 0 0 0
1 0.2207893 6.450972 0.2425206 -0.05515012 0.03300313 -0.04080217
2 0.688586 -0.964526 -0.052186 -0.1770583 0.1199093 0.04231589
3 0 -2.32697 -0.119475 0.4846782 -0.02267387 -0.0118791
4 0 -1.63865 0 -0.2536303 -0.01243338 0.01563043
5 0.001767 -1.08533 0.799261 0 0.000190155 0
6 -0.688586 -0.964528 -0.052186 -0.06349532 -0.1055949 -0.05206447
7 0 -2.32697 -0.119475 0.2463224 -0.07362964 -0.0199631
8 0 -1.63865 0 -0.1095334 -0.002646758 0.09798149
9 -0.001767 -1.08533 0.795 0 0.000190155 0
10 0 0.45881 0.00262047 0.01406987 -0.006933126 0.002880215
11 0 1.2013 0.0190781 0.1216676 -0.05035103 0.02529286
12 0 1.4317 0.657269 -0.06227103 0.0610362 0.04208684
13 0 -1.89432 0.800141 -0.3047384 0.09454596 -0.004460335
14 0.894124 1.47064 -0.39701 -0.006568504 -0.309622 -0.3253528
15 0.561685 -0.0639611 0 0.2500147 0.07110651 -0.9697091
16 1.77145 0 0 0 -0.2054406 0
17 2.08 0 0 -0.004504212 0.02246434 -0.1939774
18 0.90245 0 0 0 0 -0.8996338
19 0 1.83283 -0.327088 0.1543963 0.02622708 -0.1262156
20 0 0.717162 0.152 -0.06580204 -0.03100876 0.054259
21 0 2.63629 -0.88721 0 0 0
22 -0.894123 1.47063 -0.39701 -0.006563227 0.3096345 0.3253961
23 -0.561687 -0.063961 0 0.179551 -0.1245713 0.9503165
24 -1.77145 0 0 -0.0003025377 0.2499678 0
25 -2.08 0 0 0.05084885 -0.01945297 0.1077479
26 -0.98902 0 0 0 0 0.6549218
time 49
0 0 0 0 0 0 0
1 0.2234284 6.450972 0.2425206 -0.05515012 0.03041327 -0.04114657
2 0.688586 -0.964526 -0.052186 -0.1767031 0.1199093 0.04223438
3 0 -2.32697 -0.119475 0.4853285 -0.02033502 -0.01068504
4 0 -1.63865 0 -0.2545496 -0.01243338 0.01550764
5 0.001767 -1.08533 0.799261 0 0.000190155 0
6 -0.688586 -0.964528 -0.052186 -0.06323903 -0.1055949 -0.05217963
7 0 -2.32697 -0.119475 0.2440557 -0.07121186 -0.01916648
8 0 -1.63865 0 -0.1078616 -0.002646758 0.097935
9 -0.001767 -1.08533 0.795 0 0.000190155 0
10 0 0.45881 0.00262047 0.01406987 -0.006933126 0.002880215
11 0 1.2013 0.0190781 0.1216676 -0.05566088 0.0255745
12 0 1.4317 0.657269 -0.06227103 0.06744874 0.04294378
13 0 -1.89432 0.800141 -0.3047384 0.1103955 0.008124847
14 0.894124 1.47064 -0.39701 -0.006568504 -0.309622 -0.3253528
15 0.561685 -0.0639611 0 0.2544852 0.06803837 -0.9693493
16 1.77145 0 0 0 -0.2083349 0
17 2.08 0 0 -0.004316866 0.02149399 -0.1939774
18 0.90245 0 0 0 0 -0.9192094
19 0 1.83283 -0.327088 0.1543963 0.02622708 -0.1262156
20 0 0.717162 0.152 -0.06580204 -0.02581216 0.05177722
21 0 2.63629 -0.88721 0 0 0
22 -0.894123 1.47063 -0.39701 -0.006563227 0.3096345 0.3253961
23 -0.561687 -0.063961 0 0.1751919 -0.1276808 0.9507949
24 -1.77145 0 0 -0.0003025377 0.2470735 0
25 -2.08 0 0 0.05085193 -0.02043623 0.1077479
26 -0.98902 0 0 0 0 0.6680157
time 50
0 0 0 0 0 0 0
1 0.2258225 6.450972 0.2425206 -0.05515012 0.02788547 -0.04144291
2 0.688586 -0.964526 -0.052186 -0.1763209 0.1199093 0.04214963
3 0 -2.32697 -0.119475 0.4858937 -0.01805458 -0.00951764
4 0 -1.63865 0 -0.2554039 -0.01243338 0.01534411
5 0.001767 -1.08533 0.799261 0 0.000190155 0
6 -0.688586 -0.964528 -0.052186 -0.06306669 -0.1055949 -0.05229776
7 0 -2.32697 -0.119475 0.2420246 -0.06884636 -0.01839915
8 0 -1.63865 0 -0.1063612 -0.002646758 0.09785016
9 -0.001767 -1.08533 0.795 0 0.000190155 0
10 0 0.45881 0.00262047 0.01406987 -0.006933126 0.002880215
11 0 1.2013 0.0190781 0.1216676 -0.06096585 0.02585754
12 0 1.4317 0.657269 -0.06227103 0.07349228 0.04341869
13 0 -1.89432 0.800141 -0.3047384 0.1254928 0.02068014
14 0.894124 1.47064 -0.39701 -0.006568504 -0.309622 -0.3253528
15 0.561685 -0.0639611 0 0.2586859 0.06514068 -0.9690111
16 1.77145 0 0 0 -0.2113282 0
17 2.08 0 0 -0.004109098 0.02042824 -0.1939774
18 0.90245 0 0 0 0 -0.9388926
19 0 1.83283 -0.327088 0.1543963 0.02622708 -0.1262156
20 0 0.717162 0.152 -0.06580204 -0.02059016 0.04942568
21 0 2.63629 -0.88721 0 0 0
22 -0.894123 1.47063 -0.39701 -0.006563227 0.3096345 0.3253961
23 -0.561687 -0.063961 0 0.1710874 -0.1306151 0.9512774
24 -1.77145 0 0 -0.0003025377 0.2440803 0
25 -2.08 0 0 0.05084272 -0.02151615 0.1077479
26 -0.98902 0 0 0 0 0.6822116
time 51
0 0 0 0 0 0 0
1 0.2279535 6.450972 0.2425206 -0.05515012 0.02543392 -0.04168853
2 0.688586 -0.964526 -0.052186 -0.1759139 0.1199093 0.04206081
3 0 -2.32697 -0.119475 0.4863681 -0.01584515 -0.008383609
4 0 -1.63865 0 -0.2561873 -0.01243338 0.01514033
5 0.001767 -1.08533 0.799261 0 0.000190155 0
6 -0.688586 -0.964528 -0.052186 -0.06298298 -0.1055949 -0.05241958
7 0 -2.32697 -0.119475 0.2404215 -0.06654617 -0.01766507
8 0 -1.63865 0 -0.1050476 -0.002646758 0.09772925
9 -0.001767 -1.08533 0.795 0 0.000190155 0
10 0 0.45881 0.00262047 0.01406987 -0.006933126 0.002880215
11 0 1.2013 0.0190781 0.1216676 -0.0662334 0.02614062
12 0 1.4317 0.657269 -0.06227103 0.07912655 0.043488
13 0 -1.89432 0.800141 -0.3047384 0.1397211 0.0331088
14 0.894124 1.47064 -0.39701 -0.006568504 -0.309622 -0.3253528
15 0.561685 -0.0639611 0 0.2625833 0.06243291 -0.9686959
16 1.77145 0 0 0 -0.2144045 0
17 2.08 0 0 -0.003882581 0.01927489 -0.1939774
18 0.90245 0 0 0 0 -0.958584
19 0 1.83283 -0.327088 0.1543963 0.02622708 -0.1262156
20 0 0.717162 0.152 -0.06580204 -0.01537198 0.04722043
21 0 2.63629 -0.88721 0 0 0
22 -0.894123 1.47063 -0.39701 -0.006563227 0.3096345 0.3253961
23 -0.561687 -0.063961 0 0.167265 -0.1333545 0.9517632
24 -1.77145 0 0 -0.0003025377 0.241004 0
25 -2.08 0 0 0.05082062 -0.02268483 0.1077479
26 -0.98902 0 0 0 0 0.6974095
time 52
0 0 0 0 0 0 0
1 0.2298036 6.450972 0.2425206 -0.05515012 0.0230728 -0.04188078
2 0.688586 -0.964526 -0.052186 -0.1754848 0.1199093 0.0419671
3 0 -2.32697 -0.119475 0.4867463 -0.01371936 -0.007289669
4 0 -1.63865 0 -0.256894 -0.01243338 0.01489684
5 0.001767 -1.08533 0.799261 0 0.000190155 0
6 -0.688586 -0.964528 -0.052186 -0.06299257 -0.1055949 -0.05254584
7 0 -2.32697 -0.119475 0.2392691 -0.06432436 -0.01696818
8 0 -1.63865 0 -0.1039361 -0.002646758 0.09757459
9 -0.001767 -1.08533 0.795 0 0.000190155 0
10 0 0.45881 0.00262047 0.01406987 -0.006933126 0.002880215
11 0 1.2013 0.0190781 0.1216676 -0.07143428 0.02642238
12 0 1.4317 0.657269 -0.06227103 0.08431125 0.04315164
13 0 -1.89432 0.800141 -0.3047384 0.1529639 0.04531407
14 0.894124 1.47064 -0.39701 -0.006568504 -0.309622 -0.3253528
15 0.561685 -0.0639611 0 0.2661471 0.05993453 -0.9684052
16 1.77145 0 0 0 -0.2175481 0
17 2.08 0 0 -0.00363899 0.01804169 -0.1939774
18 0.90245 0 0 0 0 -0.9781844
19 0 1.83283 -0.327088 0.1543963 0.02622708 -0.1262156
20 0 0.717162 0.152 -0.06580204 -0.01018682 0.04517748
21 0 2.63629 -0.88721 0 0 0
22 -0.894123 1.47063 -0.39701 -0.006563227 0.3096345 0.3253961
23 -0.561687 -0.063961 0 0.1637519 -0.1358795 0.9522435
24 -1.77145 0 0 -0.0003025377 0.2378605 0
25 -2.08 0 0 0.050785 -0.02393441 0.1077479
26 -0.98902 0 0 0 0 0.7135092
time 53
0 0 0 0 0 0 0
1 0.2313549 6.450972 0.2425206 -0.05515012 0.02081629 -0.04201697
2 0.688586 -0.964526 -0.052186 -0.175036 0.1199093 0.04186768
3 0 -2.32697 -0.119475 0.4870226 -0.01168984 -0.006242538
4 0 -1.63865 0 -0.2575182 -0.01243338 0.01461415
5 0.001767 -1.08533 0.799261 0 0.000190155 0
6 -0.688586 -0.964528 -0.052186 -0.06310011 -0.1055949 -0.05267726
7 0 -2.32697 -0.119475 0.2385561 -0.06219395 -0.01631242
8 0 -1.63865 0 -0.1030421 -0.002646758 0.09738847
9 -0.001767 -1.08533 0.795 0 0.000190155 0
10 0 0.45881 0.00262047 0.01406987 -0.006933126 0.002880215
11 0 1.2013 0.0190781 0.1216676 -0.07656075 0.02670144
12 0 1.4317 0.657269 -0.06227103 0.08900607 0.0425459
13 0 -1.89432 0.800141 -0.3047384 0.1651047 0.05719921
14 0.894124 1.47064 -0.39701 -0.006568504 -0.309622 -0.3253528
15 0.561685 -0.0639611 0 0.2693538 0.05766503 -0.9681407
16 1.77145 0 0 0 -0.220743 0
17 2.08 0 0 -0.003380002 0.01673643 -0.1939774
18 0.90245 0 0 0 0 -0.9975945
19 0 1.83283 -0.327088 0.1543963 0.02622708 -0.1262156
20 0 0.717162 0.152 -0.06580204 -0.005063928 0.04331284
21 0 2.63629 -0.88721 0 0 0
22 -0.894123 1.47063 -0.39701 -0.006563227 0.3096345 0.3253961
23 -0.561687 -0.063961 0 0.1605756 -0.1381707 0.9526678
24 -1.77145 0 0 -0.0003025377 0.2346657 0
25 -2.08 0 0 0.05073527 -0.02525701 0.1077479
26 -0.98902 0 0 0 0 0.7304106
time 54
0 0 0 0 0 0 0
1 0.2325894 6.450972 0.2425206 -0.05515012 0.01867858 -0.04209445
2 0.688586 -0.964526 -0.052186 -0.17457 0.1199093 0.04176174
3 0 -2.32697 -0.119475 0.4871916 -0.009769218 -0.005248937
4 0 -1.63865 0 -0.2580539 -0.01243338 0.01429277
5 0.001767 -1.08533 0.799261 0 0.000190155 0
6 -0.688586 -0.964528 -0.052186 -0.0633636 -0.1055949 -0.0528146
7 0 -2.32697 -0.119475 0.238271 -0.06016798 -0.01570174
8 0 -1.63865 0 -0.1023809 -0.002646758 0.09717319
9 -0.001767 -1.08533 0.795 0 0.000190155 0
10 0 0.45881 0.00262047 0.01406987 -0.006933126 0.002880215
11 0 1.2013 0.0190781 0.1216676 -0.08159339 0.02697645
12 0 1.4317 0.657269 -0.06227103 0.09317075 0.04170121
13 0 -1.89432 0.800141 -0.3047384 0.1760267 0.06866744
14 0.894124 1.47064 -0.39701 -0.006568504 -0.309622 -0.3253528
15 0.561685 -0.0639611 0 0.2721794 0.05564386 -0.9679039
16 1.77145 0 0 0 -0.2239734 0
17 2.08 0 0 -0.003107289 0.01536687 -0.1939774
18 0.90245 0 0 0 0 -1.016715
19 0 1.83283 -0.327088 0.1543963 0.02622708 -0.1262156
20 0 0.717162 0.152 -0.06580204 -3.251666E-05 0.04164254
21 0 2.63629 -0.88721 0 0 0
22 -0.894123 1.47063 -0.39701 -0.006563227 0.3096345 0.3253961
23 -0.561687 -0.063961 0 0.1577635 -0.1402083 0.953027
24 -1.77145 0 0 -0.0003025377 0.2314353 0
25 -2.08 0 0 0.0506708 -0.02664474 0.1077479
26 -0.98902 0 0 0 0 0.7480135
time 55
0 0 0 0 0 0 0
1 0.2334892 6.450972 0.2425206 -0.05515012 0.01667387 -0.04211055
2 0.688586 -0.964526 -0.052186 -0.1740893 0.1199093 0.04164845
3 0 -2.32697 -0.119475 0.4872476 -0.007970092 -0.004315583
4 0 -1.63865 0 -0.2584955 -0.01243338 0.01393322
5 0.001767 -1.08533 0.799261 0 0.000190155 0
6 -0.688586 -0.964528 -0.052186 -0.06382943 -0.1055949 -0.05295856
7 0 -2.32697 -0.119475 0.2384025 -0.05825949 -0.01514009
8 0 -1.63865 0 -0.101968 -0.002646758 0.09693106
9 -0.001767 -1.08533 0.795 0 0.000190155 0
10 0 0.45881 0.00262047 0.01406987 -0.006933126 0.002880215
11 0 1.2013 0.0190781 0.1216676 -0.08650943 0.02724604
12 0 1.4317 0.657269 -0.06227103 0.09676495 0.04062291
13 0 -1.89432 0.800141 -0.3047384 0.1856135 0.079622
14 0.894124 1.47064 -0.39701 -0.006568504 -0.309622 -0.3253528
15 0.561685 -0.0639611 0 0.2746002 0.05389052 -0.9676961
16 1.77145 0 0 0 -0.2272234 0
17 2.08 0 0 -0.002822529 0.01394079 -0.1939774
18 0.90245 0 0 0 0 -1.035447
19 0 1.83283 -0.327088 0.1543963 0.02622708 -0.1262156
20 0 0.717162 0.152 -0.06580204 0.004878202 0.04018259
21 0 2.63629 -0.88721 0 0 0
22 -0.894123 1.47063 -0.39701 -0.006563227 0.3096345 0.3253961
23 -0.561687 -0.063961 0 0.1553429 -0.141973 0.9533205
24 -1.77145 0 0 -0.0003025377 0.2281854 0
25 -2.08 0 0 0.05059098 -0.02808974 0.1077479
26 -0.98902 0 0 0 0 0.7662179
time 56
0 0 0 0 0 0 0
1 0.2340364 6.450972 0.2425206 -0.05515012 0.01481633 -0.04206261
2 0.688586 -0.964526 -0.052186 -0.1735963 0.1199093 0.04152701
3 0 -2.32697 -0.119475 0.4871852 -0.006305108 -0.003449202
4 0 -1.63865 0 -0.2588369 -0.01243338 0.01353601
5 0.001767 -1.08533 0.799261 0 0.000190155 0
6 -0.688586 -0.964528 -0.052186 -0.06447987 -0.1055949 -0.0531099
7 0 -2.32697 -0.119475 0.2389393 -0.05648153 -0.0146314
8 0 -1.63865 0 -0.1018697 -0.002646758 0.09666438
9 -0.001767 -1.08533 0.795 0 0.000190155 0
10 0 0.45881 0.00262047 0.01406987 -0.006933126 0.002880215
11 0 1.2013 0.0190781 0.1216676 -0.09128614 0.02750885
12 0 1.4317 0.657269 -0.06227103 0.09974843 0.03931635
13 0 -1.89432 0.800141 -0.3047384 0.1937485 0.08996619
14 0.894124 1.47064 -0.39701 -0.006568504 -0.309622 -0.3253528
15 0.561685 -0.0639611 0 0.2765923 0.05242449 -0.9675192
16 1.77145 0 0 0 -0.2304772 0
17 2.08 0 0 -0.002527395 0.01246596 -0.1939774
18 0.90245 0 0 0 0 -1.05369
19 0 1.83283 -0.327088 0.1543963 0.02622708 -0.1262156
20 0 0.717162 0.152 -0.06580204 0.009641087 0.03894902
21 0 2.63629 -0.88721 0 0 0
22 -0.894123 1.47063 -0.39701 -0.006563227 0.3096345 0.3253961
23 -0.561687 -0.063961 0 0.1533412 -0.1434452 0.9535482
24 -1.77145 0 0 -0.0003025377 0.2249317 0
25 -2.08 0 0 0.0504952 -0.02958412 0.1077479
26 -0.98902 0 0 0 0 0.7849236
time 57
0 0 0 0 0 0 0
1 0.2342129 6.450972 0.2425206 -0.05515012 0.01312015 -0.04194795
2 0.688586 -0.964526 -0.052186 -0.1730936 0.1199093 0.04139658
3 0 -2.32697 -0.119475 0.4869986 -0.004786876 -0.002656502
4 0 -1.63865 0 -0.2590724 -0.01243338 0.01310166
5 0.001767 -1.08533 0.799261 0 0.000190155 0
6 -0.688586 -0.964528 -0.052186 -0.0652972 -0.1055949 -0.05326935
7 0 -2.32697 -0.119475 0.23987 -0.05484712 -0.01417963
8 0 -1.63865 0 -0.1021305 -0.002646758 0.09637544
9 -0.001767 -1.08533 0.795 0 0.000190155 0
10 0 0.45881 0.00262047 0.01406987 -0.006933126 0.002880215
11 0 1.2013 0.0190781 0.1216676 -0.09590079 0.02776351
12 0 1.4317 0.657269 -0.06227103 0.1020808 0.0377869
13 0 -1.89432 0.800141 -0.3047384 0.2003148 0.09960317
14 0.894124 1.47064 -0.39701 -0.006568504 -0.309622 -0.3253528
15 0.561685 -0.0639611 0 0.2781319 0.05126524 -0.9673744
16 1.77145 0 0 0 -0.2337188 0
17 2.08 0 0 -0.002223564 0.01095015 -0.1939774
18 0.90245 0 0 0 0 -1.071347
19 0 1.83283 -0.327088 0.1543963 0.02622708 -0.1262156
20 0 0.717162 0.152 -0.06580204 0.01424308 0.03795785
21 0 2.63629 -0.88721 0 0 0
22 -0.894123 1.47063 -0.39701 -0.006563227 0.3096345 0.3253961
23 -0.561687 -0.063961 0 0.1517857 -0.1446052 0.9537096
24 -1.77145 0 0 -0.0003025377 0.22169 0
25 -2.08 0 0 0.05038284 -0.03112002 0.1077479
26 -0.98902 0 0 0 0 0.8040305
time 58
0 0 0 0 0 0 0
1 0.234001 6.450972 0.2425206 -0.05515012 0.01159953 -0.04176392
2 0.688586 -0.964526 -0.052186 -0.1725836 0.1199093 0.04125635
3 0 -2.32697 -0.119475 0.4866826 -0.003428019 -0.00194421
4 0 -1.63865 0 -0.2591961 -0.01243338 0.01263069
5 0.001767 -1.08533 0.799261 0 0.000190155 0
6 -0.688586 -0.964528 -0.052186 -0.06626371 -0.1055949 -0.05343764
7 0 -2.32697 -0.119475 0.2411831 -0.05336932 -0.01378872
8 0 -1.63865 0 -0.1027282 -0.002646758 0.09606655
9 -0.001767 -1.08533 0.795 0 0.000190155 0
10 0 0.45881 0.00262047 0.01406987 -0.006933126 0.002880215
11 0 1.2013 0.0190781 0.1216676 -0.1003306 0.02800866
12 0 1.4317 0.657269 -0.06227103 0.1037219 0.0360399
13 0 -1.89432 0.800141 -0.3047384 0.2051962 0.1084363
14 0.894124 1.47064 -0.39701 -0.006568504 -0.309622 -0.3253528
15 0.561685 -0.0639611 0 0.2791953 0.05043224 -0.9672633
16 1.77145 0 0 0 -0.2369325 0
17 2.08 0 0 -0.001912709 0.009401138 -0.1939774
18 0.90245 0 0 0 0 -1.088317
19 0 1.83283 -0.327088 0.1543963 0.02622708 -0.1262156
20 0 0.717162 0.152 -0.06580204 0.01866516 0.03722509
21 0 2.63629 -0.88721 0 0 0
22 -0.894123 1.47063 -0.39701 -0.006563227 0.3096345 0.3253961
23 -0.561687 -0.063961 0 0.150704 -0.1454338 0.9538044
24 -1.77145 0 0 -0.0003025377 0.2184764 0
25 -2.08 0 0 0.05025329 -0.03268954 0.1077479
26 -0.98902 0 0 0 0 0.8234384
time 59
0 0 0 0 0 0 0
1 0.2333826 6.450972 0.2425206 -0.05515012 0.01026864 -0.04150784
2 0.688586 -0.964526 -0.052186 -0.1720688 0.1199093 0.04110551
3 0 -2.32697 -0.119475 0.4862313 -0.002241165 -0.001319046
4 0 -1.63865 0 -0.2592023 -0.01243338 0.01212362
5 0.001767 -1.08533 0.799261 0 0.000190155 0
6 -0.688586 -0.964528 -0.052186 -0.06736165 -0.1055949 -0.0536155
7 0 -2.32697 -0.119475 0.2428674 -0.05206117 -0.01346261
8 0 -1.63865 0 -0.1036402 -0.002646758 0.09574001
9 -0.001767 -1.08533 0.795 0 0.000190155 0
10 0 0.45881 0.00262047 0.01406987 -0.006933126 0.002880215
11 0 1.2013 0.0190781 0.1216676 -0.1045529 0.02824294
12 0 1.4317 0.657269 -0.06227103 0.1046314 0.03408073
13 0 -1.89432 0.800141 -0.3047384 0.2082759 0.1163686
14 0.894124 1.47064 -0.39701 -0.006568504 -0.309622 -0.3253528
15 0.561685 -0.0639611 0 0.2797586 0.04994498 -0.9671876
16 1.77145 0 0 0 -0.2401024 0
17 2.08 0 0 -0.001596507 0.007826697 -0.1939774
18 0.90245 0 0 0 0 -1.104501
19 0 1.83283 -0.327088 0.1543963 0.02622708 -0.1262156
20 0 0.717162 0.152 -0.06580204 0.0228863 0.03676677
21 0 2.63629 -0.88721 0 0 0
22 -0.894123 1.47063 -0.39701 -0.006563227 0.3096345 0.3253961
23 -0.561687 -0.063961 0 0.1501232 -0.1459111 0.9538323
24 -1.77145 0 0 -0.0003025377 0.2153065 0
25 -2.08 0 0 0.05010594 -0.03428481 0.1077479
26 -0.98902 0 0 0 0 0.8430473
time 60
0 0 0 0 0 0 0
1 0.2323398 6.450972 0.2425206 -0.05515012 0.00914167 -0.04117705
2 0.688586 -0.964526 -0.052186 -0.1715516 0.1199093 0.04094322
3 0 -2.32697 -0.119475 0.4856394 -0.001238927 -0.0007877215
4 0 -1.63865 0 -0.259085 -0.01243338 0.01158095
5 0.001767 -1.08533 0.799261 0 0.000190155 0
6 -0.688586 -0.964528 -0.052186 -0.06857333 -0.1055949 -0.05380369
7 0 -2.32697 -0.119475 0.2449114 -0.0509357 -0.01320526
8 0 -1.63865 0 -0.1048441 -0.002646758 0.09539811
9 -0.001767 -1.08533 0.795 0 0.000190155 0
10 0 0.45881 0.00262047 0.01406987 -0.006933126 0.002880215
11 0 1.2013 0.0190781 0.1216676 -0.1085449 0.02846497
12 0 1.4317 0.657269 -0.06227103 0.1047689 0.03191472
13 0 -1.89432 0.800141 -0.3047384 0.2094374 0.1233036
14 0.894124 1.47064 -0.39701 -0.006568504 -0.309622 -0.3253528
15 0.561685 -0.0639611 0 0.279798 0.04982293 -0.9671486
16 1.77145 0 0 0 -0.2432126 0
17 2.08 0 0 -0.001276633 0.006234599 -0.1939774
18 0.90245 0 0 0 0 -1.119799
19 0 1.83283 -0.327088 0.1543963 0.02622708 -0.1262156
20 0 0.717162 0.152 -0.06580204 0.02688551 0.03659888
21 0 2.63629 -0.88721 0 0 0
22 -0.894123 1.47063 -0.39701 -0.006563227 0.3096345 0.3253961
23 -0.561687 -0.063961 0 0.1500709 -0.1460178 0.9537928
24 -1.77145 0 0 -0.0003025377 0.2121964 0
25 -2.08 0 0 0.04994017 -0.03589796 0.1077479
26 -0.98902 0 0 0 0 0.8627568
time 61
0 0 0 0 0 0 0
1 0.2308547 6.450972 0.2425206 -0.05515012 0.00823281 -0.04076888
2 0.688586 -0.964526 -0.052186 -0.1710347 0.1199093 0.04076868
3 0 -2.32697 -0.119475 0.4849012 -0.0004339376 -0.0003569638
4 0 -1.63865 0 -0.2588384 -0.01243338 0.0110032
5 0.001767 -1.08533 0.799261 0 0.000190155 0
6 -0.688586 -0.964528 -0.052186 -0.06988101 -0.1055949 -0.05400291
7 0 -2.32697 -0.119475 0.2473039 -0.05000595 -0.01302059
8 0 -1.63865 0 -0.1063175 -0.002646758 0.09504317
9 -0.001767 -1.08533 0.795 0 0.000190155 0
10 0 0.45881 0.00262047 0.01406987 -0.006933126 0.002880215
11 0 1.2013 0.0190781 0.1216676 -0.1122838 0.0286734
12 0 1.4317 0.657269 -0.06227103 0.1040311 0.02954724
13 0 -1.89432 0.800141 -0.3047384 0.2088794 0.1291444
14 0.894124 1.47064 -0.39701 -0.006568504 -0.309622 -0.3253528
15 0.561685 -0.0639611 0 0.2792897 0.05008557 -0.9671481
16 1.77145 0 0 0 -0.2462472 0
17 2.08 0 0 -0.0009547613 0.004632616 -0.1939774
18 0.90245 0 0 0 0 -1.134114
19 0 1.83283 -0.327088 0.1543963 0.02622708 -0.1262156
20 0 0.717162 0.152 -0.06580204 0.03064179 0.03673749
21 0 2.63629 -0.88721 0 0 0
22 -0.894123 1.47063 -0.39701 -0.006563227 0.3096345 0.3253961
23 -0.561687 -0.063961 0 0.1505744 -0.1457343 0.9536857
24 -1.77145 0 0 -0.0003025377 0.2091618 0
25 -2.08 0 0 0.04976465 -0.03752111 0.1077479
26 -0.98902 0 0 0 0 0.8824672
time 62
0 0 0 0 0 0 0
1 0.2289094 6.450972 0.2425206 -0.05515012 0.007556253 -0.04028068
2 0.688586 -0.964526 -0.052186 -0.1705203 0.1199093 0.04058107
3 0 -2.32697 -0.119475 0.4840111 0.0001611849 -3.348989E-05
4 0 -1.63865 0 -0.2584567 -0.01243338 0.0103909
5 0.001767 -1.08533 0.799261 0 0.000190155 0
6 -0.688586 -0.964528 -0.052186 -0.07126698 -0.1055949 -0.05421392
7 0 -2.32697 -0.119475 0.2500335 -0.04928496 -0.01291256
8 0 -1.63865 0 -0.108038 -0.002646758 0.09467748
9 -0.001767 -1.08533 0.795 0 0.000190155 0
10 0 0.45881 0.00262047 0.01406987 -0.006933126 0.002880215
11 0 1.2013 0.0190781 0.1216676 -0.115747 0.02886687
12 0 1.4317 0.657269 -0.06227103 0.1020303 0.02698364
13 0 -1.89432 0.800141 -0.3047384 0.2069422 0.1337942
14 0.894124 1.47064 -0.39701 -0.006568504 -0.309622 -0.3253528
15 0.561685 -0.0639611 0 0.27821 0.05075238 -0.9671873
16 1.77145 0 0 0 -0.2491904 0
17 2.08 0 0 -0.0006325674 0.003028523 -0.1939774
18 0.90245 0 0 0 0 -1.147345
19 0 1.83283 -0.327088 0.1543963 0.02622708 -0.1262156
20 0 0.717162 0.152 -0.06580204 0.03413415 0.03721429
21 0 2.63629 -0.88721 0 0 0
22 -0.894123 1.47063 -0.39701 -0.006563227 0.3096345 0.3253961
23 -0.561687 -0.063961 0 0.151661 -0.145041 0.9535105
24 -1.77145 0 0 -0.0003025377 0.2062186 0
25 -2.08 0 0 0.04958948 -0.03914637 0.1077479
26 -0.98902 0 0 0 0 0.902078
time 63
0 0 0 0 0 0 0
1 0.226486 6.450972 0.2425206 -0.05515012 0.007126166 -0.03970977
2 0.688586 -0.964526 -0.052186 -0.1700111 0.1199093 0.04037956
3 0 -2.32697 -0.119475 0.4829637 0.0005338266 0.0001759832
4 0 -1.63865 0 -0.2579341 -0.01243338 0.009744547
5 0.001767 -1.08533 0.799261 0 0.000190155 0
6 -0.688586 -0.964528 -0.052186 -0.07271349 -0.1055949 -0.05443745
7 0 -2.32697 -0.119475 0.2530887 -0.04878578 -0.01288512
8 0 -1.63865 0 -0.1099831 -0.002646758 0.09430334
9 -0.001767 -1.08533 0.795 0 0.000190155 0
10 0 0.45881 0.00262047 0.01406987 -0.006933126 0.002880215
11 0 1.2013 0.0190781 0.1216676 -0.1189117 0.029044
12 0 1.4317 0.657269 -0.06227103 0.09879507 0.02422928
13 0 -1.89432 0.800141 -0.3047384 0.2036962 0.1371563
14 0.894124 1.47064 -0.39701 -0.006568504 -0.309622 -0.3253528
15 0.561685 -0.0639611 0 0.2765349 0.05184283 -0.9672679
16 1.77145 0 0 0 -0.2520263 0
17 2.08 0 0 -0.0003117254 0.001430094 -0.1939774
18 0.90245 0 0 0 0 -1.159393
19 0 1.83283 -0.327088 0.1543963 0.02622708 -0.1262156
20 0 0.717162 0.152 -0.06580204 0.03734155 0.03812447
21 0 2.63629 -0.88721 0 0 0
22 -0.894123 1.47063 -0.39701 -0.006563227 0.3096345 0.3253961
23 -0.561687 -0.063961 0 0.1533581 -0.1439185 0.953267
24 -1.77145 0 0 -0.0003025377 0.2033827 0
25 -2.08 0 0 0.04941538 -0.04076588 0.1077479
26 -0.98902 0 0 0 0 0.9214892
time 64
0 0 0 0 0 0 0
1 0.2235664 6.450972 0.2425206 -0.05515012 0.006956746 -0.03905348
2 0.688586 -0.964526 -0.052186 -0.1695095 0.1199093 0.04016334
3 0 -2.32697 -0.119475 0.4817534 0.0006713485 0.0002647354
4 0 -1.63865 0 -0.2572647 -0.01243338 0.00906467
5 0.001767 -1.08533 0.799261 0 0.000190155 0
6 -0.688586 -0.964528 -0.052186 -0.07420285 -0.1055949 -0.05467423
7 0 -2.32697 -0.119475 0.2564583 -0.04852145 -0.01294221
8 0 -1.63865 0 -0.1121305 -0.002646758 0.09392305
9 -0.001767 -1.08533 0.795 0 0.000190155 0
10 0 0.45881 0.00262047 0.01406987 -0.006933126 0.002880215
11 0 1.2013 0.0190781 0.1216676 -0.1217551 0.02920343
12 0 1.4317 0.657269 -0.06227103 0.09443116 0.02128951
13 0 -1.89432 0.800141 -0.3047384 0.199212 0.139134
14 0.894124 1.47064 -0.39701 -0.006568504 -0.309622 -0.3253528
15 0.561685 -0.0639611 0 0.2742407 0.0533764 -0.9673915
16 1.77145 0 0 0 -0.2547391 0
17 2.08 0 0 6.088405E-06 -0.000154902 -0.1939774
18 0.90245 0 0 0 0 -1.170159
19 0 1.83283 -0.327088 0.1543963 0.02622708 -0.1262156
20 0 0.717162 0.152 -0.06580204 0.04024302 0.03944786
21 0 2.63629 -0.88721 0 0 0
22 -0.894123 1.47063 -0.39701 -0.006563227 0.3096345 0.3253961
23 -0.561687 -0.063961 0 0.1556932 -0.1423471 0.9529547
24 -1.77145 0 0 -0.0003025377 0.2006699 0
25 -2.08 0 0 0.04924304 -0.04237176 0.1077479
26 -0.98902 0 0 0 0 0.9406006
time 65
0 0 0 0 0 0 0
1 0.2201327 6.450972 0.2425206 -0.05515012 0.007062184 -0.03830915
2 0.688586 -0.964526 -0.052186 -0.169018 0.1199093 0.03993159
3 0 -2.32697 -0.119475 0.4803746 0.0005611409 0.0002260478
4 0 -1.63865 0 -0.2564426 -0.01243338 0.008364498
5 0.001767 -1.08533 0.799261 0 0.000190155 0
6 -0.688586 -0.964528 -0.052186 -0.07571732 -0.1055949 -0.05492499
7 0 -2.32697 -0.119475 0.2601309 -0.04850499 -0.01308778
8 0 -1.63865 0 -0.1144577 -0.002646758 0.09353893
9 -0.001767 -1.08533 0.795 0 0.000190155 0
10 0 0.45881 0.00262047 0.01406987 -0.006933126 0.002880215
11 0 1.2013 0.0190781 0.1216676 -0.1242545 0.0293438
12 0 1.4317 0.657269 -0.06227103 0.08904437 0.0181697
13 0 -1.89432 0.800141 -0.3047384 0.19356 0.1396304
14 0.894124 1.47064 -0.39701 -0.006568504 -0.309622 -0.3253528
15 0.561685 -0.0639611 0 0.2713036 0.05537258 -0.9675595
16 1.77145 0 0 0 -0.2573129 0
17 2.08 0 0 0.0003191979 -0.001718691 -0.1939774
18 0.90245 0 0 0 0 -1.179544
19 0 1.83283 -0.327088 0.1543963 0.02622708 -0.1262156
20 0 0.717162 0.152 -0.06580204 0.04281755 0.04114418
21 0 2.63629 -0.88721 0 0 0
22 -0.894123 1.47063 -0.39701 -0.006563227 0.3096345 0.3253961
23 -0.561687 -0.063961 0 0.1586935 -0.1403074 0.9525734
24 -1.77145 0 0 -0.0003025377 0.1980961 0
25 -2.08 0 0 0.0490732 -0.04395612 0.1077479
26 -0.98902 0 0 0 0 0.9593124
time 66
0 0 0 0 0 0 0
1 0.2163253 6.450972 0.2425206 -0.05515012 0.007456677 -0.03747411
2 0.688586 -0.964526 -0.052186 -0.168539 0.1199093 0.03968349
3 0 -2.32697 -0.119475 0.4788304 0.0001905803 5.319668E-05
4 0 -1.63865 0 -0.2554621 -0.01243338 0.007723953
5 0.001767 -1.08533 0.799261 0 0.000190155 0
6 -0.688586 -0.964528 -0.052186 -0.07723918 -0.1055949 -0.05519048
7 0 -2.32697 -0.119475 0.2640764 -0.04874945 -0.01332575
8 0 -1.63865 0 -0.1169422 -0.002646758 0.09315325
9 -0.001767 -1.08533 0.795 0 0.000190155 0
10 0 0.45881 0.00262047 0.01406987 -0.006933126 0.002880215
11 0 1.2013 0.0190781 0.1216676 -0.1263871 0.02946375
12 0 1.4317 0.657269 -0.06227103 0.08274047 0.01487519
13 0 -1.89432 0.800141 -0.3047384 0.1868108 0.1378596
14 0.894124 1.47064 -0.39701 -0.006568504 -0.309622 -0.3253528
15 0.561685 -0.0639611 0 0.2676997 0.05785082 -0.9677735
16 1.77145 0 0 0 -0.2597318 0
17 2.08 0 0 0.0006259305 -0.003253494 -0.1939774
18 0.90245 0 0 0 0 -1.187448
19 0 1.83283 -0.327088 0.1543963 0.02622708 -0.1262156
20 0 0.717162 0.152 -0.06580204 0.04504413 0.04317318
21 0 2.63629 -0.88721 0 0 0
22 -0.894123 1.47063 -0.39701 -0.006563227 0.3096345 0.3253961
23 -0.561687 -0.063961 0 0.1623866 -0.1377797 0.9521226
24 -1.77145 0 0 -0.0003025377 0.1956772 0
25 -2.08 0 0 0.04890655 -0.04551109 0.1077479
26 -0.98902 0 0 0 0 0.977524
time 67
0 0 0 0 0 0 0
1 0.2123298 6.450972 0.2425206 -0.05515012 0.008154384 -0.0365457
2 0.688586 -0.964526 -0.052186 -0.1680752 0.1199093 0.03941822
3 0 -2.32697 -0.119475 0.4771783 -0.0004529627 -0.00026053
4 0 -1.63865 0 -0.2543172 -0.01243338 0.007154138
5 0.001767 -1.08533 0.799261 0 0.000190155 0
6 -0.688586 -0.964528 -0.052186 -0.07875071 -0.1055949 -0.05547142
7 0 -2.32697 -0.119475 0.2681589 -0.04928702 -0.0136601
8 0 -1.63865 0 -0.1195618 -0.002646758 0.09276833
9 -0.001767 -1.08533 0.795 0 0.000190155 0
10 0 0.45881 0.00262047 0.01406987 -0.006933126 0.002880215
11 0 1.2013 0.0190781 0.1216676 -0.1281303 0.02956191
12 0 1.4317 0.657269 -0.06227103 0.07562526 0.01141134
13 0 -1.89432 0.800141 -0.3047384 0.1790347 0.1333108
14 0.894124 1.47064 -0.39701 -0.006568504 -0.309622 -0.3253528
15 0.561685 -0.0639611 0 0.2634054 0.06083062 -0.968035
16 1.77145 0 0 0 -0.2619799 0
17 2.08 0 0 0.0009246096 -0.004751546 -0.1939774
18 0.90245 0 0 0 0 -1.193772
19 0 1.83283 -0.327088 0.1543963 0.02622708 -0.1262156
20 0 0.717162 0.152 -0.06580204 0.04690176 0.04549459
21 0 2.63629 -0.88721 0 0 0
22 -0.894123 1.47063 -0.39701 -0.006563227 0.3096345 0.3253961
23 -0.561687 -0.063961 0 0.1667996 -0.1347447 0.9516019
24 -1.77145 0 0 -0.0003025377 0.193429 0
25 -2.08 0 0 0.04874381 -0.0470288 0.1077479
26 -0.98902 0 0 0 0 0.9951355
time 68
0 0 0 0 0 0 0
1 0.2081833 6.450972 0.2425206 -0.05515012 0.009228742 -0.03552125
2 0.688586 -0.964526 -0.052186 -0.1676288 0.1199093 0.03913497
3 0 -2.32697 -0.119475 0.4754428 -0.001382095 -0.0007218564
4 0 -1.63865 0 -0.253007 -0.01243338 0.006651728
5 0.001767 -1.08533 0.799261 0 0.000190155 0
6 -0.688586 -0.964528 -0.052186 -0.08023418 -0.1055949 -0.05576856
7 0 -2.32697 -0.119475 0.2723304 -0.05021669 -0.01409476
8 0 -1.63865 0 -0.1222938 -0.002646758 0.09238648
9 -0.001767 -1.08533 0.795 0 0.000190155 0
10 0 0.45881 0.00262047 0.01406987 -0.006933126 0.002880215
11 0 1.2013 0.0190781 0.1216676 -0.1294612 0.02963691
12 0 1.4317 0.657269 -0.06227103 0.06780449 0.007783521
13 0 -1.89432 0.800141 -0.3047384 0.1703024 0.1263677
14 0.894124 1.47064 -0.39701 -0.006568504 -0.309622 -0.3253528
15 0.561685 -0.0639611 0 0.2583967 0.06432249 -0.9683455
16 1.77145 0 0 0 -0.2640415 0
17 2.08 0 0 0.00121356 -0.006205071 -0.1939774
18 0.90245 0 0 0 0 -1.198417
19 0 1.83283 -0.327088 0.1543963 0.02622708 -0.1262156
20 0 0.717162 0.152 -0.06580204 0.04836944 0.04806812
21 0 2.63629 -0.88721 0 0 0
22 -0.894123 1.47063 -0.39701 -0.006563227 0.3096345 0.3253961
23 -0.561687 -0.063961 0 0.1719436 -0.1311826 0.9510111
24 -1.77145 0 0 -0.0003025377 0.1913674 0
25 -2.08 0 0 0.04858569 -0.04850136 0.1077479
26 -0.98902 0 0 0 0 1.012047
time 69
0 0 0 0 0 0 0
1 0.203923 6.450972 0.2425206 -0.05515012 0.01067558 -0.03442681
2 0.688586 -0.964526 -0.052186 -0.1672024 0.1199093 0.03883291
3 0 -2.32697 -0.119475 0.4736397 -0.002609452 -0.001337498
4 0 -1.63865 0 -0.2515736 -0.01243338 0.006213398
5 0.001767 -1.08533 0.799261 0 0.000190155 0
6 -0.688586 -0.964528 -0.052186 -0.08167187 -0.1055949 -0.05608261
7 0 -2.32697 -0.119475 0.2765631 -0.0514804 -0.01463367
8 0 -1.63865 0 -0.1251161 -0.002646758 0.09200997
9 -0.001767 -1.08533 0.795 0 0.000190155 0
10 0 0.45881 0.00262047 0.01406987 -0.006933126 0.002880215
11 0 1.2013 0.0190781 0.1216676 -0.1303572 0.0296874
12 0 1.4317 0.657269 -0.06227103 0.05938396 0.003997072
13 0 -1.89432 0.800141 -0.3047384 0.1606843 0.1174138
14 0.894124 1.47064 -0.39701 -0.006568504 -0.309622 -0.3253528
15 0.561685 -0.0639611 0 0.2527071 0.06822971 -0.9687066
16 1.77145 0 0 0 -0.2659006 0
17 2.08 0 0 0.001491108 -0.007606294 -0.1939774
18 0.90245 0 0 0 0 -1.201283
19 0 1.83283 -0.327088 0.1543963 0.02622708 -0.1262156
20 0 0.717162 0.152 -0.06580204 0.04942617 0.05085354
21 0 2.63629 -0.88721 0 0 0
22 -0.894123 1.47063 -0.39701 -0.006563227 0.3096345 0.3253961
23 -0.561687 -0.063961 0 0.1776578 -0.1271403 0.9503499
24 -1.77145 0 0 -0.0003025377 0.1895082 0
25 -2.08 0 0 0.04843292 -0.0499209 0.1077479
26 -0.98902 0 0 0 0 1.028158
end
